/* XPM */
static const char *collect[] = {
/* columns rows colors chars-per-pixel */
"64 64 219 2 ",
"   c #0C0E14",
".  c #090F1A",
"X  c #040C18",
"o  c #0E121C",
"O  c #0F1016",
"+  c #12141D",
"@  c #181618",
"#  c #281E1E",
"$  c #351F1A",
"%  c #34221D",
"&  c #0A1424",
"*  c #131621",
"=  c #161A25",
"-  c #1A1C25",
";  c #161C28",
":  c #1A1E2A",
">  c #261F20",
",  c #1B222D",
"<  c #1A2129",
"1  c #1E2432",
"2  c #1C2A3B",
"3  c #262529",
"4  c #3B2622",
"5  c #382B2B",
"6  c #202635",
"7  c #232A34",
"8  c #242B3C",
"9  c #292C37",
"0  c #2D313C",
"q  c #3D3A3B",
"w  c #383337",
"e  c #4A322C",
"r  c #5B392E",
"t  c #53342A",
"y  c #453B3B",
"u  c #4D3C3A",
"i  c #463634",
"p  c #5E3E37",
"a  c #523D3A",
"s  c #5C3F39",
"d  c #7F3F2F",
"f  c #633D33",
"g  c #6B3F34",
"h  c #603F38",
"j  c #743F32",
"k  c #7C3F31",
"l  c #693929",
"z  c #4D413E",
"x  c #47413F",
"c  c #55423D",
"v  c #5B433C",
"b  c #644036",
"n  c #6D4135",
"m  c #63433B",
"M  c #6A463B",
"N  c #66493F",
"B  c #6B483B",
"V  c #764235",
"C  c #724235",
"Z  c #7F4233",
"A  c #7E4132",
"S  c #794234",
"D  c #7E4234",
"F  c #7C4334",
"G  c #734739",
"H  c #75493A",
"J  c #7B4A39",
"K  c #7A4638",
"L  c #73412E",
"P  c #272F41",
"I  c #282F42",
"U  c #2A3244",
"Y  c #2D364A",
"T  c #2E384D",
"R  c #263145",
"E  c #31394D",
"W  c #383B45",
"Q  c #323D52",
"!  c #2E3A50",
"~  c #413E45",
"^  c #3C414C",
"/  c #34435A",
"(  c #3C465B",
")  c #3A4458",
"_  c #3D4A61",
"`  c #4D4544",
"'  c #4F4846",
"]  c #42434D",
"[  c #4E4949",
"{  c #454141",
"}  c #544541",
"|  c #5A4641",
" . c #534946",
".. c #5C4B45",
"X. c #544B49",
"o. c #5B4E49",
"O. c #504548",
"+. c #5C504B",
"@. c #534D55",
"#. c #644E45",
"$. c #6A4E45",
"%. c #614F48",
"&. c #665047",
"*. c #6C5147",
"=. c #65514A",
"-. c #6B5349",
";. c #6E594F",
":. c #725246",
">. c #7C5445",
",. c #73554A",
"<. c #7B5649",
"1. c #74594D",
"2. c #7B594C",
"3. c #6A5951",
"4. c #655751",
"5. c #735C52",
"6. c #7B5E52",
"7. c #7C6155",
"8. c #7F6558",
"9. c #42516B",
"0. c #495974",
"q. c #51637C",
"w. c #823F2E",
"e. c #83402F",
"r. c #804233",
"t. c #824333",
"y. c #814131",
"u. c #854332",
"i. c #854433",
"p. c #804334",
"a. c #824334",
"s. c #824434",
"d. c #834332",
"f. c #894532",
"g. c #854937",
"h. c #8C4B36",
"j. c #844B39",
"k. c #8C4D38",
"l. c #924E37",
"z. c #914E38",
"x. c #984F36",
"c. c #84513E",
"v. c #8F513B",
"b. c #93523B",
"n. c #9A553D",
"m. c #9B543B",
"M. c #A45B3F",
"N. c #835645",
"B. c #855847",
"V. c #8B5A47",
"C. c #845B4B",
"Z. c #8B5D4B",
"A. c #895643",
"S. c #945C46",
"D. c #9A5C44",
"F. c #935E49",
"G. c #835F50",
"H. c #A25D42",
"J. c #8D604E",
"K. c #95624D",
"L. c #9C644C",
"P. c #9F6046",
"I. c #856253",
"U. c #8B6453",
"Y. c #8D6B5B",
"T. c #87685A",
"R. c #946753",
"E. c #9C6A54",
"W. c #936B5A",
"Q. c #976A55",
"!. c #9F715C",
"~. c #A46146",
"^. c #AD6346",
"/. c #A3654C",
"(. c #AC6649",
"). c #A6694F",
"_. c #AC6A4E",
"`. c #B36647",
"'. c #B96746",
"]. c #BC6947",
"[. c #B36748",
"{. c #B46A4B",
"}. c #BC6C4B",
"|. c #BE704F",
" X c #A36C53",
".X c #AB6C51",
"XX c #A36F59",
"oX c #B36E51",
"OX c #B96F50",
"+X c #AA7056",
"@X c #A3715A",
"#X c #BD7252",
"$X c #B67456",
"%X c #8A7268",
"&X c #B27C61",
"*X c #C26E4B",
"=X c #C66E4A",
"-X c #C4714F",
";X c #CA734E",
":X c #D2764F",
">X c #C47350",
",X c #C97450",
"<X c #CC7A56",
"1X c #CD7D5A",
"2X c #C67B5A",
"3X c #D27750",
"4X c #D37953",
"5X c #D47F59",
"6X c #C77F60",
"7X c #BE8568",
"8X c #D3815D",
"9X c #CC805D",
"0X c #CB8566",
"qX c #D38A68",
"wX c #BDACA3",
"eX c #A59187",
"rX c #C7AEA1",
"tX c #CB9984",
"yX c #DFDDDA",
/* pixels */
"s.s.u.a g y.Z Z Z s.s.D u D Z S S k Z Z Z Z u V y.Z y.y.a.a.i.n a u.Z Z Z Z Z y.g a h.s.y.y.Z k k e.p s u.D a.a.a.a.D y.n u i.a.",
"s.s.u.a g y.Z Z Z Z y.D u D a.k k k k k k k u j y.Z y.y.y.y.u.n a y.Z Z Z Z Z y.g a h.s.Z Z Z k k w.p s u.D a.a.a.a.D y.n u y.Z ",
"s.s.u.a n u.y.y.y.y.y.D u D y.k k k k k k Z u V y.y.y.y.a.a.i.n a u.y.y.y.y.y.u.n a h.s.y.y.Z k k e.p p f.a.a.a.a.a.a.u.n u u.Z ",
"u u u y y a u u u u u u y u u u u u u u u u y u u u u u u u u u y u u u u u u u u y a u u u u u u u y y u u u y u a u a y y a u ",
"V V V S V V g y j V V V S V V S s a S V V V S V V S a c D V V V S V S b y S S S S D K K D p u V V V S S V V S u b D V V V S V V ",
"s.a.y.y.y.y.j u d y.y.y.y.y.Z u.h p i.y.y.y.y.y.y.e.p v f.y.y.y.y.y.u.C a i.i.g.g.g.g.j.h.f a u.y.y.y.y.y.a.y.a M i.Z Z Z Z Z Z ",
"i.i.i.a.a.u.j u y.y.u.u.i.y.y.f.h v f.a.i.i.i.i.y.e.p v f.y.y.y.y.y.i.C a f.i.h.h.h.h.h.h.f a f.y.y.y.a.a.s.u.a n u.Z y.y.y.y.y.",
"a a a u u u u q a a a a u u a a y y a a a a u u u a y y a u u u u u a u q a a a a a a a a y y a u u u u u u u y y a u u u u u u ",
"C C C u s j g j g C C n y n C g g g g n n n y f C C C C C C V b u C n C C n n C p y j n C C j g g j a a V n C C C n C C b y G G ",
"y.y.e.a g e.y.y.y.y.y.Z a g.i.e.d d d d w.e.a S u.u.u.i.i.i.f.C a f.y.u.y.y.y.f.n a e.y.u.y.y.e.d e.p v f.y.u.y.y.u.y.f.C a f.i.",
"S S Z a f Z S S S S S V y S S j k k j j j S y C Z D D D D S s.n u y.S Z Z S S y.b u k V S Z S j j d a s y.S S D D S S Z n y s.D ",
"u u u y y a u y u u u u y u u u y y u u u u y u u u y y u u u y y u u y y u u a u u a u a u u u u u y u a u u y u u u u y y u u ",
"j.j.j.g.g.g.K y Z g.j.j.j.j.j.h.m v h.j.j.j.j.j.j.a.s m k.j.j.j.j.j.j.G u g.g.j.j.k.j.j.k.m c k.j.j.j.j.j.j.y.a B g.D D D D D D ",
"k.k.k.h.k.h.D a e.h.k.k.k.k.k.l.M m l.k.k.k.k.k.k.f.p M l.k.k.k.k.k.z.H c h.h.h.h.h.k.k.l.M v l.k.k.k.k.k.k.f.a H h.y.i.a.a.i.i.",
"H H H K H C f y C H H H K H G K c c J H H H K H H V u v J G G H H G H b y K G G G H G G G c z K G H H H G G n y v C n n n C n n ",
"c c v y u c c c c c v v y c c c c c c ..| | y c | ..........#.} { #.....#.....#.} { #.v c v v c c v z y c c c c c c c c u q c c ",
"k.k.l.v H l.k.z.z.z.l.k.} b.z.h.h.h.h.z.b.b.c g.n.H.H.^.[.[.}.V.$.].^.H.H.H.H.M.c.#.{.n.l.z.z.z.z.x.m M x.z.z.z.z.z.z.l.K c f.i.",
"h.h.h.s H z.k.k.k.z.z.h.c n.n.b.n.H.H.H.^.^.#.H.{.>X|.>X>X>X,XK.1.,X>X>X>X>X>X*XF.1.0X#X`.^.H.H.n.n.m m l.k.k.k.k.k.k.z.H c i.y.",
"J J D a M j.j.j.j.J j.c.` S.D.S.D.D.D.D.S.S...).{._.{.{._._.oXN.&.}._.{.oX_._.{.V.4.7X.X(.{.{.)./.~.#.v k.J j.j.j.j.J j.B z S V ",
"c c c c c c c { #.#.#.&.&.&.&.-.o. .&.&.&.#.#.&.#.#. .o.-.&.&.#.#.&.&... .&.&.-.=.4.4.=.&... .#.#.*.#.#.#.#...x u c c c c c c c ",
"n.n.n.n.n.b.J ..[.>X>X>X>X>X>X5XY.U.5X>X>X>X>X>X>X].:.Y.8X-X>X>X>X>X,X/.-.;X|.$X$X$X$X$X#XB.1.*X-X>X>X>X>X>X'.#.>.n.v.b.b.b.b.b.",
"b.b.b.b.b.n.S.#.^.#X>X>X>X>X>X<XU.U.1X#X>X>X>X>X#X{.>.Y.9X#X>X>X>X>X,XL.,.-X[.^.^.^.^.^.`.N.2.,X|.>X>X>X>X#X`.$.!.{.v.k.b.b.b.b.",
"b.b.b.H.^.{.D.#.{.-X-X-X>X>X>X<XU.C.<X>X>X>X>X>X#X'.:.I.<X#X>X>X>X#X,XL.*.-X[.^.^.[.^.(.{.Z.2.;X|.>X>X>X>X#X'.$.Z.{.~.D.b.b.b.b.",
"| | ..| #.&... .&.-.-.-.%.&.&.&.o...#.-.&.&...&.&.#.....&.&.&.%...&.&.%. .*.#.#.....#.#.&.+.o.*.&.&.=.=.&.&.#. ...#.#.#.| ` } | ",
"S.).[.#.V.[.(.^.(..XoX.Xo.(.(.~.~././.(.(.(...S.(.oXOXOXoXOX>XK.-.>XoX{.OX{.oX#XK...^._.oX{.oXoX{.|.1.2.>X{.{.OXOXoX{.#XK...D.A.",
"{.}.].:.F.].{.{.{.{.'.[.&.}.}.[.[.^.[.^.^.^.&.H.{.>X>X>X,X[.N.N u D.}.>X>X>X>X,X/.&.`.}.>X>X>X>X#X-X2.Z.;X>X>X>X>X>X>X,X/.&.}.D.",
"}.}.}.*.F.*X{.}.{.{.}.[.&.{.'.[.[.[.[.[.[.[.#.{.-X>X>X,XV.] / / ) Q O._.,X>X>X,XL.#.`.}.>X>X>X>X>X,X2.C.3X>X>X>X>X>X>X,X/.#.-X}.",
"&.&.*. ...-.&.#.&.&.&.&. .#.&.&.#.#.&.&.#.#.' &.&.*.&.v ) / E E E E / ] #.&.&.-.=. .&.-.-.&.&.-.&.&. ...-.&.&.&.-.-.-.-.=.X.-.-.",
"_._._.{.{..XQ...~._._._.{._._.$X8.1.#X_._._.{._._.~.:.2 I Y Q E E Q U R c {.).+X+X+X+X+XoX<.5.$X.X_.{.{._._._.#.I.+X X X+X+X X X",
">X>X>X-X>X}.H.&.-X>X>X>X>X>X*X1XW.Z.,X>X>X>X>X>X>X].H 1 { < I 6 6 1 3 W 5 *X{.^.^.^.[.^.'.V.C.;X-X-X>X-X-X-X'.:.V.{.^.^.^.^.^.[.",
",X,X,X,X,X-X~.&.;X>X,X,X,X,X>X5XY.U.5X,X,X,X,X,X>X}.r 2 3 O - W 0 + @ 9 9 ~.*X[.{.{.{.[.*XV.2.3X>X>X,X,X>X>X*X*.F.].[.'.'.'.'.'.",
",.,.,.:.,.:.#.` *.,.,.,.1.,.,.1...o.6.,.,.,.,.,.-.$.w Q 8 - 9 ] ^ 7 ; Y T u :.$.$.$.*.*.-... .1.-.,.,.,.,.-.*.` ..*.$.*.$.$.*.*.",
" X X/...<.P.K.P.K.E.E.R.X.F.F.S.F.F.S.K.K.K. .B.K.A.^ Q E : O ] W   6 E ! { P..XC.=.&XE.L./.K.V.V.D.&.-.).L.L.)./.L.L.).C... X X",
">X-X=X:.K.*X'.'.'.'.}.{.&.>X}.[.[.[.[.[.[.[.&.H.*X^.0 T T 8   3 + + U E Q q -X,X/.6.qX2X-X-X{.[.[.].C.Z.;X-X-X-X-X-X-X;X).-.-X-X",
",X>X;X:.K.=X}.}.}.}.*X}.&.}.].'.{.{.'.'.'.'.#.[.,Xb.8 T Y 8 : + + : U Y Q w ^.4X/.5.qX2X-X-X'.`.[.].C.Z.:X>X,X,X,X,X>X,X).-.;X-X",
"<.1.,.` #.<.:.1.1.1.1.,.` :.:.:.,.:.*.:.*.*.` ,.H @./ T E T I ; : U Y Y U _ @.>.&.X.7.2.1.<.,.*.*.:.o.o.2.1.<.<.<.<.<.<.&.' <.1.",
"L.L.K.L.L.E.Y.X.L.L.K.K.L.L.K.L.&.-./.K.L.K. XB.) 0.I U ( T Y 1 I Q Q Q 8 Q 0.~ E.E.K.R.K.$.%.F.K.L.L.L.K.K.L...7.XXQ.Q.Q.E.Q.Q.",
",X,X>X-X-X-X_.-.,X>X>X>X>X-X>X;XC.J.3X>X>X>X,X>.q.) : U ( ( Q Y Y ( ( / 8 ; 9.0.K.0X0X0X<XB.C.;X>X>X>X>X>X>X*X:.@X2X{.{.{.{.{.{.",
",X,X;X;X,X=X~.-.,X,X,X,X,X,X>X;XB.J.4X,X,X,X-X{ 9.E , 1 U Q / E Q ( Y R 1 , ( 9.#.qX0X0X1XV.C.:X>X,X>X>X,X>X*X:.E.>X{.{.{.'.{.{.",
"C.C.C.Z.C.C.:. .Z.C.C.C.Z.C.C.C...o.B.C.C.Z.:.E Q U 6 U , 1 U Y Y 8 6 6 U 1 Y Q W I.T.T.I.&.o.Z.C.C.C.C.C.C.>. .#.>.<.<.<.<.>.<.",
"U.U.J. .,.Z.C.V.C.U.U.I. .C.C.C.C.C.C.U.U.U.q I Y 6 6 Q Y 6 , I 6 , I Y T ; 8 E 8 z C.C.Z.K.Z.>.N.V.%.=.K.Z.J.K.K.J.J.K.2.X.R.U.",
",X>X;X:.K.=X'.'.}.}.*X}.-.-X}.'.[.[.{.{.[.'.z * 1 , 1 Q T Y Y 6 I Y T T T , 1 : ; :.'.}.>X-X}.'.[.].C.U.3X>X,X>X>X,X>X,X).,.,X>X",
";X-X;X:.K.=X].}.}.}.*X{.&.|.}.'.'.'.`.`.[.{.u ; 1 o 6 T U T T T T T Y I R : o 1 < *.'.}.,X-X}.'.'.*XC.J.3X>X,X,X,X,X,X,X).-.;X>X",
"Z.Z.C. .-.C.C.C.C.C.C.<.` >.>.>.N.N.>.>.>.<.q 1 ,   6 Y I T Y Y Y Y Y I U ,   6 1 } N.C.C.Z.V.>.>.C.o.&.Z.C.Z.Z.Z.Z.Z.Z.1.X.Z.Z.",
"Z.Z.Z.Z.Z.C.:.` <.C.Z.Z.J.Z.C.R.3.&.J.Z.C.U.>.: + o 1 T T Y Y Y Y Y Y T Y ;   o 9 Y.Y.T.U.-.o.C.C.C.Z.Z.C.C.Z.o.5.W.I.G.C.J.I.I.",
";X;X;X;X;X=X~.#.`.-X,X,X>X,X-X8XW.J.4X,X,X,X}.# o + ; 6 U Y E Y Y T Y I 1 * + X 5 #X{.{.;XK.2.;X-X,X-X-X,X>X*X:.!.0X}.'.{.{.'.'.",
",X,X,X;X;X*X~.-.-X-X,X,X>X,X-X5XY.U.4X>X,X>X4Xn . + ; ; 1 6 U 1 1 6 6 1 ; + +   S '.[.[.;XK.C.3X>X,X>X>X,X-X].:.F.'.[.`.[.[.[.[.",
"K.K.K.K.K.V.:.X.L.K.K.K.L.K.K.E.-.4.Q.K.K.K.L.K.+ o + ; ; ; ; ; ; ; ; ; ; + o > V.V.B.N.F.,.&.K.K.K.K.K.K.J.V...-.V.B.B.C.V.B.C.",
"6.6.C.X.&.C.2.C.2.7.7.7. .,.:.:.1.:.,.2.2.2.[ :.b . ; 1 ; ; ; - ; ; ; ; : o + >.-.` >.<.2.C.I.I.I.I.4.+.C.2.C.C.C.C.2.C.,.X.C.2.",
"{.{.;X2.L.,X>X>X>X>X,X#X&.-X}.`.'.'.'.{.{.{.&.H.}.e . 1 ; ; ; * ; ; ; ; 1 X f 4X/.*.'.}.,X-X2X6X6X8XC.J.4X>X,X>X,X,X>X,X_.,.*X'.",
"[.^.=X<.L.,X>X>X>X-X-X}.-.-X}.[.[.[.[.[.[.[.&.^.*X|.@ o : *   o o   ; - X e 4X;X).-.'.}.,X-X2X6X2X1XC.J.3X>X>X>X>X>X>X,X).,.].[.",
"V.B.F.o.2.L.K.L.K.K.K.J.X.V.V.B.V.V.B.V.V.B. .Z.L.H 7 o + o * ; ; o o + & i F.K.<. .S.F.K.L.E.Q.Q.E.=.-.L.K.K.L.L.K.K.L.2.o.S.V.",
"2.2.<.2.2.6.5. .2.2.2.2.2.2.2.G.4.+.2.2.2.2.<.<.2.3 ; O   + * ; * ; o   ; & i T.7.7.7.7.2... .:.1.2.2.2.2.2.2.X.=.7.7.7.7.7.6.6.",
",X,X,X,X;X5X&X-.,X,X,X,X,X,X;X5XW.Z.4X,X,X,X,X,X3XJ +   3 o . : * o * - . 5 (.>X#X#X#X#X*XB.2.;X-X,X,X,X;X,X=X:.XX<X}.#X#XOXOX}.",
",X>X>X-X>X-X~.-.,X>X>X>X>X>X-X5XW.Z.3X>X>X>X>X>X>X=X>.#.5 % # & @ 4 > , v ,X-X'.{.{.{.{.'.B.C.:X>X>X>X>X>X>X*X:.E.>X[.'.`.[.[.[.",
"/./.L.)./.K.N. .K.L.L.L.)./.L..X5.5.+XL.L.L.).L.).~.$...0 J L.e B .Xr , v (.L.F.F.K.F.V.K.,.=.).L.L././.L.L.F...:.F.V.V.F.F.V.V.",
"5.5.1. .%.:.-.*.-.5.5.5.[ *.*.*.*.*.-.1.1.1.[ #.c 7 < < 9 , w ..y 3 , 9 - , 7 #.%.' :.,.1.1.1.,.,.<.+.o.<.1.,.1.,.1.1.<.&. .1.1.",
",X,X-X:.K.=X'.'.].}.|.{.&.}.}.`.`.`.`.{.{.[.m b.l 4 r 3 e r % B i $ g 5 5 f 4 F j.N '.*X;X-X*X*X}.;XU.Z.3X>X,X,X,X,X-X3X_.,.*X{.",
">X-X=X:.F.*X{.{.'.'.'.[.&.>X}.[.[.[.[.[.^.^.N j.h.b.h.t k.b.z.C a z.z.D r b.b.z.J $.`.}.>X-X}.}.}.;XU.Z.,X>X>X>X>X>X>X;X X-.].[.",
").)./.#.2./.P.~.P.P.P.K. .F.D.F.D.D.F.F.F.F. .F.F.N.A.c.G G K b y K G c.c.N.S.D.C...D.P.)._.).L.P._.1.,._.).)._._.).).$XrX%XP.F.",
"-.-.-.-.-.*.#.` $.-.-.-.&.-.-.*. .o.,.-.*.*.*.*.,.:. .o.-.*.*.*.*.*.,.#. .1.,.5.;.3.5.5.,... .$.&.-.&.-.-.-.,. .=.1.&.eXyXwX1.-.",
",X;X;X;X;X*XH.#.'.-X;X;X;X-X-X;XN.Z.:X-X;X;X;X;X-X*X>.Y.8X-X;X;X;X-X3X).-.3X}.#X#X#X#X#X,XK.<.=X-X-X;X-X-X-X=X:.K.*X}.{.tX#X'.}.",
">X>X>X-X-X}.~.#.[.}.>X>X-X-X#X}.>.C.;X|.-X-X-X-X|.`.>.T.1X}.-X-X-X|.>X/.-.,X[.^.^.^.^.^.'.V.2.;X|.>X>X>X|.#X'.*.V.`.^.^.^.^.^.^.",
">X>X>X>X-X>X{.#.'.-X>X>X>X-X>X-XC.I.<X-X-X-X-X-X|.'.>.C.,X-X-X-X-X-X,X/.-.,X{.^.[.[.[.^.}.K.2.;X#X>X>X>X>X#X'.*.V.`.^.[.[.[.^.^."
};
