/* XPM */
static const char *enemy[] = {
/* columns rows colors chars-per-pixel */
"64 64 238 2 ",
"   c #0B111A",
".  c #39231D",
"X  c #0B1625",
"o  c #191B26",
"O  c #161F31",
"+  c #271D30",
"@  c #1A212C",
"#  c #172639",
"$  c #0C243A",
"%  c #292528",
"&  c #382A28",
"*  c #282938",
"=  c #342C35",
"-  c #3E393B",
";  c #363338",
":  c #333236",
">  c #271816",
",  c #452C24",
"<  c #4C3A37",
"1  c #443B3B",
"2  c #4D3C39",
"3  c #453634",
"4  c #5B3C36",
"5  c #523D39",
"6  c #573D38",
"7  c #4F342E",
"8  c #7D3E2F",
"9  c #733D2F",
"0  c #633E35",
"q  c #6C3E33",
"w  c #733E32",
"e  c #7B3F30",
"r  c #683C2E",
"t  c #4D403E",
"y  c #54413C",
"u  c #5A433D",
"i  c #5A4037",
"p  c #6D4135",
"a  c #66453A",
"s  c #714135",
"d  c #754134",
"f  c #744234",
"g  c #7F4132",
"h  c #7E4131",
"j  c #7B4233",
"k  c #734639",
"l  c #76493A",
"z  c #7C4B3B",
"x  c #7C4837",
"c  c #7E4937",
"v  c #172746",
"b  c #382847",
"n  c #28374A",
"m  c #38354A",
"M  c #2A3D54",
"N  c #3C3855",
"B  c #262C46",
"V  c #273A61",
"C  c #452D54",
"Z  c #46395A",
"A  c #413B46",
"S  c #523867",
"D  c #623E75",
"F  c #34465A",
"G  c #344559",
"H  c #2F485E",
"J  c #3A4D62",
"K  c #3F5367",
"L  c #1F566C",
"P  c #4D4645",
"I  c #4B4849",
"U  c #534542",
"Y  c #5A4641",
"T  c #544946",
"R  c #5C4A45",
"E  c #554B49",
"W  c #5C4E4A",
"Q  c #48445B",
"!  c #575253",
"~  c #634D45",
"^  c #6A4E45",
"/  c #644F48",
"(  c #674740",
")  c #744E41",
"_  c #6C5147",
"`  c #65514A",
"'  c #6B524A",
"]  c #665047",
"[  c #745246",
"{  c #7C5446",
"}  c #73554A",
"|  c #7A574A",
" . c #74594E",
".. c #7B594C",
"X. c #6D5A51",
"o. c #645752",
"O. c #735C53",
"+. c #7C5E52",
"@. c #755F58",
"#. c #7C6155",
"$. c #79635A",
"%. c #455767",
"&. c #4C4766",
"*. c #51687D",
"=. c #506876",
"-. c #777A79",
";. c #6E6C6B",
":. c #604273",
">. c #813F2E",
",. c #84402F",
"<. c #88412E",
"1. c #824332",
"2. c #814232",
"3. c #854231",
"4. c #844332",
"5. c #894533",
"6. c #844936",
"7. c #8C4B36",
"8. c #844B39",
"9. c #8D4D39",
"0. c #924D36",
"q. c #924F38",
"w. c #984F36",
"e. c #8C523C",
"r. c #81503F",
"t. c #94513A",
"y. c #9B553C",
"u. c #AE5B3C",
"i. c #C2633E",
"p. c #835645",
"a. c #8A5643",
"s. c #8C5946",
"d. c #845B4B",
"f. c #8B5D4B",
"g. c #835748",
"h. c #945B45",
"j. c #9B5C44",
"k. c #925E4A",
"l. c #835E50",
"z. c #A35C41",
"x. c #AB5F41",
"c. c #8C604E",
"v. c #95614C",
"b. c #9C634B",
"n. c #8D6453",
"m. c #886758",
"M. c #9B6953",
"N. c #966A56",
"B. c #9C7059",
"V. c #A56146",
"C. c #AD6346",
"Z. c #A4664C",
"A. c #AB6549",
"S. c #AD694D",
"D. c #A7684D",
"F. c #B36546",
"G. c #BA6645",
"H. c #BB6847",
"J. c #B36648",
"K. c #B46B4C",
"L. c #BB6C4B",
"P. c #BE704F",
"I. c #A46C53",
"U. c #AC6D52",
"Y. c #B46E51",
"T. c #AC7056",
"R. c #A6735B",
"E. c #BC7353",
"W. c #B67457",
"Q. c #977867",
"!. c #8C756B",
"~. c #A77A64",
"^. c #C36E4B",
"/. c #C76B47",
"(. c #C4714F",
"). c #CA734E",
"_. c #D3774F",
"`. c #C47350",
"'. c #CA7450",
"]. c #CB7A57",
"[. c #D27750",
"{. c #D27A54",
"}. c #D17E59",
"|. c #C77F60",
" X c #968377",
".X c #A88A79",
"XX c #B6876E",
"oX c #CC805E",
"OX c #CA8565",
"+X c #D38765",
"@X c #CE9073",
"#X c #3B7B97",
"$X c #707D82",
"%X c #5F6586",
"&X c #728992",
"*X c #709DA5",
"=X c #74AAB3",
"-X c #568A9A",
";X c #78BDC8",
":X c #6CB7C6",
">X c #57BFD5",
",X c #5DC5DA",
"<X c #7AC8D6",
"1X c #69C5D9",
"2X c #70D5E5",
"3X c #7CE8F8",
"4X c #58CAE5",
"5X c #858685",
"6X c #8A9696",
"7X c #969797",
"8X c #908F8B",
"9X c #A59A8D",
"0X c #97A29E",
"qX c #ADA49B",
"wX c #94B2B3",
"eX c #A8A9A9",
"rX c #B8B8B8",
"tX c #ACB0B4",
"yX c #D8A98C",
"uX c #D2A693",
"iX c #E9B696",
"pX c #C59D8B",
"aX c #9AC2BF",
"sX c #F3C19F",
"dX c #F9C8A6",
"fX c #F8D0B3",
"gX c #FFE1BE",
"hX c #89BBC3",
"jX c #93CFD6",
"kX c #B3C3C6",
"lX c #8EDBE9",
"zX c #90F0FC",
"xX c #ABFAFE",
"cX c #A5E8F0",
"vX c #C7C8C8",
"bX c #CAFAFB",
"nX c #FDFEFD",
"mX c #E9FFFF",
/* pixels */
"2.2.3.4 4 3.g g g 2.2.3.2 w 2.e e e e g g 2.5 q 2.g 2.2.2.2.2.d 2 g g g g g g 2.d 2 4.2.g g g e e 8 q 5 3.g g g g g g 2.d 2 2.g ",
"2.g 3.4 4 3.g g g g g 2.2 d 2.e e 8 8 e e 8 5 q 2.g g 2.2.g 2.j 2 g g g g g g 2.d 2 4.2.g g e 8 e 8 q 5 3.g g g g g g 2.d 2 e e ",
"2.2.3.4 4 3.g 2.2.2.g 2.2 w 2.8 8 8 8 8 e >.5 q 2.2.2.2.2.2.2.j 2 2.2.2.2.2.2.2.d 2 4.2.g 2.e 8 8 >.q 5 3.g 2.2.2.2.2.2.d < g e ",
"2 2 2 1 1 2 < < < 2 2 2 - < < < < < < < 2 < 1 < 2 2 2 < 2 2 2 < - 2 2 2 < 2 2 2 < 1 2 2 2 < < < < < 1 1 2 < 2 < < 2 2 2 < - 2 2 ",
"d d d d d d w 1 q d d d d d d d a 2 d d d d d d d j 0 2 x d d d d d d s 1 d d x x x x x d 0 1 w s d d d d d j 5 4 j d d d d d d ",
"2.2.2.2.2.2.8 2 w 2.2.2.2.2.2.4.s 5 3.2.2.2.2.2.2.3.q y 5.2.2.2.2.2.3.g 2 2.4.6.6.6.6.6.5.w 5 3.2.2.2.2.2.2.<.4 a 5.e g g g g g ",
"3.3.2.2.3.2.8 < w 3.3.3.4.4.4.5.s 5 5.2.3.3.4.3.3.3.q 5 5.2.2.2.3.3.3.g 2 2.4.7.7.7.7.7.5.f 2 3.2.2.2.2.2.2.<.4 0 <.8 8 e 2.g 2.",
"2 2 2 2 2 2 < - < 5 5 5 2 2 2 5 < 1 5 2 5 2 2 2 2 < 1 1 5 2 2 2 2 2 2 2 - 2 5 5 5 5 5 5 5 < - 2 2 2 2 2 2 2 < 1 1 < < < < < 2 2 ",
"s p s 5 5 w q w q q s s 1 a s q q q q q p s < 0 w p s s s s d p 1 p s s s p p s 0 1 q q q w w q q w 4 2 d q p s s p s s p 1 s s ",
"2.2.<.0 4 <.2.2.,.,.,.<.5 x 5.>.>.>.>.>.8 >.5 w <.3.3.3.4.3.4.g 2 3.3.3.2.3.3.3.d 5 ,.2.3.2.2.>.>.<.q 4 5.2.3.2.2.3.3.3.j 2 2.4.",
"e e e 4 6 g e e j e e g 2 s g w e e w w w e 2 q g j g g j g g d < g g g g g g g s < e e j j j w w e 0 5 2.j j g g j j g s 1 j j ",
"2 2 2 1 1 2 2 1 < 2 2 2 1 2 2 2 2 1 2 2 2 2 1 2 2 2 < 1 2 2 2 2 1 2 2 2 1 2 2 2 2 1 2 2 2 2 1 2 2 2 2 1 2 2 2 1 1 2 2 2 < 1 2 2 ",
"6.6.8.8.6.6.6.2 w 6.8.8.8.8.8.7.k y 7.8.8.8.8.8.8.1.0 y 9.8.8.8.8.8.8.l 2 8.8.8.8.9.8.8.9.k y 9.8.8.8.8.8.8.2.6 a 7.j g g g j d ",
"7.7.7.7.7.7.5.5 e 7.7.7.7.7.7.0.k u 0.7.7.9.7.7.9.5.q u 0.9.9.7.7.7.7.8.y 7.7.7.7.7.9.9.7.k y 0.9.9.9.7.7.9.5.4 a 0.2.3.3.2.3.3.",
"k k k k l k q 1 p k k k l l l l a t z k k k l l k s 4 U r.z { z r.z z l 1 l k k k l k k k i 1 l k k l l k k s 2 5 s q p p s q q ",
"y y y 1 1 u y y y y y u 1 2 y y y y y Y Y Y 1 2 Y R R ~ ~ R ~ R P ~ R R ~ R R ~ Y A ~ Y y y u y y u t 1 u y y y y y y y 5 - 5 y ",
"7.7.0.a a 0.7.0.7.0.q.w.u 9.w.7.7.7.7.0.t.y.u k y.z.z.z.z.z.z.h.R z.z.z.z.z.z.y.e.Y K.j.0.0.7.q.q.y.k u w.7.0.0.0.0.0.0.8.y 5.4.",
"7.7.7.a a 0.7.7.7.7.7.0.u e.y.t.y.y.z.z.x.F.^ h.G.`.(.(.(.(.(.Z.' `.`.`.(.`.`.L.Z.` OXE.G.F.z.z.z.y.k u 0.9.9.7.9.9.9.0.8.y 4.2.",
"z x x 5 u 8.8.8.8.z 8.e.U p.j.h.j.j.j.j.h.j.R v.K.S.K.K.K.Y.E.j.R K.j.h.L.F.V.K.b.` XXT.A.K.K.D.Z.A.) Y 9.z z 8.8.8.8.8.l 1 d f ",
"y y y y y y y 1 Y ~ ~ ` ~ / / ' ` P ] ] ] ~ ~ ] ] ~ U W / : : ; * ; * @ I m * ` X.` X.o.] R P R ~ / / ~ / ~ R t 1 y y y y t y y ",
"t.t.t.t.y.t.7.Y V.^.`.`.`.`.(.].R. .}.`.`.`.(.(.`.L.a.T I M F F J J F G F * e.}.`.E.E.E.E.h.] ^.^.(.(.(.(.(.L.^ ^ y.9.q.q.q.t.t.",
"t.t.t.t.t.y.j.R j.L.`.(.(.`.(.].R.O.}.`.`.`.`.(.`.G.( n F F F F F F F F n 3 p.4 e.J.V.V.F.h.' '.(.(.(.(.(.(.G.) N.E.9.9.9.9.9.9.",
"t.t.t.y.V.K.V.R V.^.(.(.(.`.(.'.I.' '.`.`.`.`.`.(.) *.%.G F F F F J %XK M n $ o y.J.C.A.F.b.' ).(.`.(.(.(.(.L.[ | K.V.y.t.t.t.9.",
"Y Y R Y R / R U ] ] ` ' W ~ / / R T ~ ] ' ' R ] a Q &X*.%.%.=.F *.*.*.%.n * o ~  .T R ~ ~ R E ' / ` ~ R ] / / T T ~ R ~ Y P Y Y ",
"h.Z.K.[ [ J.A.A.A.S.U.Y.W b.A.V.V.V.V.A.A.J.R s.e.%.J K M J *.# F J G J n n ; u 4 y V.A.K.K.L.K.K.L.d.' P.K.K.L.L.K.K.K.D.T j.t.",
"J.L.L.{ | L.K.K.K.K.G.L.' S.^.F.F.C.F.F.C.G.^ j.k H M $ 1 A H i m v G F # n n X % ~ J.K.`.(.(.`.`.).f. .).(.(.(.(.(.(.(.K./ K.z.",
"L.L.^.{ | ^.K.L.L.L.K.L./ V.L.F.F.F.F.F.F.G./ S.a M m % ~.O.$ XXm.  G F @ o o z Y.] F.L.`.`.`.`.`.'.f.| '.(.(.(.(.(.(.(.K.R L.(.",
"/ / / U T ] ] ~ / / / / P R / / ~ ~ / / / / P ` - M ; 4 m..X  .X#.. n M @ X @ ~ ` I ` ' ' ] ] ` ' ' T T ' ] ] ` ] ' ' ' ] I ] ' ",
"S.S.S.K.K.S.I.W h.S.S.S.K.S.S.W.N.] K.S.S.S.K.E.6 # * E % yX^ ` ; : * n ; 3 o & T.T.T.T.T.f.` W.U.S.K.K.S.D.J._  .T.I.T.T.T.I.I.",
"`.(.(.(.(.L.C./ K.(.`.(.(.`.(.{.~.} ).`.(.`.(.{.7   P qX;.fXiXfX$X X- # 2 u 7 L.C.J.J.C.G.b. .).(.(.(.`.(.`.L.[ g.G.C.F.F.F.F.F.",
"'.'.).).).^.F./ L.'.'.'.'.'.).XXR. .{.'.'.'.'.{.t.o ; dXfXiXsXdXfXiX% X 5 % , ^.J.J.J.J.L.b.} [.`.'.'.'.'.'.^.{ g.H.J.J.J.J.G.G.",
"} } } [ } _ / P / } } } } } a =X-.t #.} } } } [ d.= o iXdXyXyXiXdXiX%     o 2 ^ ^ _ ^ ^ ' ~ T } ' ' } } ' ' _ T T ^ / / / / ^ ^ ",
"I.I.Z./ ' Z.b.b.b.M.M.I.E d.t.wX<Xe.h.b.v.v.y O.N.p   7 uXdXiXdXsXQ.o   7 z I.Z.f.! ~.I.b.Z.b.s.h.j.} ] D.b.b.D.Z.Z.Z.Z.v.T M.I.",
"(.(.^.{ d.^.L.L.L.L.L.L.' Y./.wXxX Xu.J.J.G.` 1X.XF.& & I !.R.~.I.3 % I a '.(.'.K.X.+X].(.(.L.F.F.H.v...[.(.(.(.(.(.(.).K./ L.(.",
"'.(.).{ d.).L.^.^.^.^./.( Y.i.eXwX X!.T.G.Z.lXwXi.}.7.-.-.} @X@X!.7XeX-.e.'.'.{.K.O.+X].).'.L.G.G.H.v..._.(.'.'.'.'.'.).L./ ^.).",
"} } [ U T | [ [ [ [ ) -.=.a s =X&Xo.1X' ) *XlX-.{ [  .5X$X`  X$.5XvX7X-.$.{ | | ' E #. .}  .} _ _ [ / E ..} } | | } } | ' P } } ",
"v.v.v.b.b.M.B.E k.v.j.6XzX*Xh.!.2X;.;Xd.-.zX6XM.z T tXkX8Xn V v 8XeXtXrXkX;.a.M.M.M.M.M.v.[ E h.v.v.v.b.v.v.b.] X.R.N.N.N.M.N.N.",
"'.'.).(.).(.L.' P.).).L.jXzXjX0XwXwX5X8XjX.XeX6Xm.rXtX7XrXQ B ;.rXtXrXeXrXeXM.+XOXOXOXOX].h.} ).(.(.(.(.(.(.^.| N.}.F.K.K.K.K.K.",
"'.'.).).).^.F.' (.).'./.XXjX8X9X=X:X&X<XXX9XlXh.! vX5X5XvX8Xm tXrXrXtX$XrXvX8XI.@XOX+X+XoXj.} [.).).).).).).^.| n.'.G.G.G.G.G.G.",
"d.d.d.d.d.d.[ P ..d.d.l.e.*X=Xp.,XxXxXjX8X1X%.m v ! ;.eXvX8X5XvXrXrXrX;.tX7XI / m.m.m.m.n.' E f.d.d.d.d.d.d.| T T { [ [ { { | [ ",
"n.n.c.R / f.d.f.f.h.s.c.U -.hX4XxXnXnXbX,Xo.v M n X ; 5X7X! 8X7X7X7X6X! 3 O # ^ d.P g.d.f.f.f.{ { g.' W v.f.f.v.v.c.f.v.d.I n.n.",
"'.'.).g.f.).L.L.Y.8X0X.X/ 0XhX3XmXnXnXnXzXkX=.#XL a 1 Q Z Q Q Q Q Q Z A . B V a E.] G.L.'.(.L.G.G.H.v.d.[.(.).(.`.).).).L.] (.'.",
").).).{ d.).L.L.L.8X<XcXlX3X9X2XbXnXnXmX;X$X*XjXcX<Xn b Z Z N Z Z Z m + p = V 6 L.] G.L.).).L.G.G.H.v...[.).).).'.'.).).L./ ^.).",
"f.d.d.Y ~ d.g.d.d.8.z $.%XO.-.>X3XbXbXzX:X5X! } m.%.S Z b b S + b C C b 4 = v 1 d.P { g.g.f.f.{ { g.' W f.d.d.f.f.d.d.f...P d.f.",
"f.f.d.f.f.d.{ P [ d.f.s.e.a.;.*X<X<X,X4X6XwXzX*X9.l = C + Z :.b S S C + ; ] .XQ. .N.m.m.n. .E g.d.d.f.f.d.d.f.W o.N.n.d.d.f.d.d.",
").).).).).^.F.~ V.).'.'.`.hX.XXXjX@.jX;XjXu.~.lX9Xy.m * b b o D + * b * & Q.gX.Xy.E.L.K.(.D.} ).(.).).).).'.^.{ n.+XL.G.L.K.L.L.",
"'.).).).).^.F./ L.).'.).XX9XW.lX=X$XcXqXkXlXR.T.XXl Z m D b + S C Q &.B 7 p.yXB.y.G.F.F.^.D.} [.).).).).).'.^.{ g.H.F.F.F.F.F.F.",
"v.k.k.v.v.f.{ E f.k.k.k.v.w.;X;XX.2XzX6X{ :XzX7Xw.W &.b D b m b D m Q N = { y a f.s.p.g.s. .W v.k.k.v.v.f.c.s.R ~ s.g.g.g.s.g.g.",
"+.+.d.W W d...d...#.#.m.y -X=Xz l wXxX;.d.p.*.,XW Z m Z C b Q * %Xb Z &.* a c.d.} P [ | ..d.l.m.#.m.o.W d.....d.d.....d.} I .. .",
"L.J.^.f.f._.(.(.).'.`.'.[ ~.L.G.F.~.lXI.G.L.a n.a N N C b N &.b b b Z &.b 0 [.).K.] G.L.'.).].OXOX+Xv...[.).'.'.'.).).).L.' L.G.",
"F.F.^.f.f.[.(.(.(.(.(.(.' G.^.J.u. XwXF.F.G.' V.y.5 m * m Q Z Z = m Z m * 0 '.'.K.' G.L.'.(.].OX|.oXc...[.`.'.`.`.'.(.).L.' L.F.",
"s.p.k.' ' b.k.b.v.v.v.v.E | s.p.a.m...a.p.s.U ..I.a.o o o % 5 1 : o o o , Z.v.b.d.U a.s.v.v.M.N.N.M.' ` b.v.v.v.v.v.v.b.f.E s.p.",
"| | | | |  .#.I }  . .| .. .| ..X.E d. .| | ..| +.5 B N O & c.d.a o m M = [  .#.#.#.#.#.+.~ I ^ } | |  .| | ..W W +.#.+.+.#.#.+.",
").).).).).].OX` (.'.'.'.'.'.).{.~. .[.'.'.'.'.'.'.C.; B * e.'.'.L.3 n * 3 ).(.`.`.`.`.`.(.h.} ).(.'.).).).'.).g.n.}.L.E.P.P.P.L.",
"(.(.(.(.(.(.F.' (.'.'.'.`.'.(.}.R.| [.`.'.'.`.`.`.H.N.kXm.).`.(.{.y.7XtX^ '.L.L.L.K.L.L.L.h.} [.(.).(.(.(.`.^.{ n.'.F.G.G.F.F.F.",
"b.b.b.Z.Z.b.s.P k.b.b.b.D.Z.b.I.n.o.T.b.b.b.D.b.I.j.~ 6X^ D.Z.Z.D.a.;.5X5 U.v.h.k.b.k.k.k.| W I.b.b.Z.Z.b.b.j.~ / h.s.s.s.h.s.s.",
"O.O. .T T [ _ _ _  .O.O.I / _ ] _ _ '  . . .I / ~ o X # % ~ u y - i % X   3 | | ' P [ } } } } } } } ` E | } } } } } } } ' I  . .",
"'.'.).{ d.^.L.L.L.L.L.(.' K.^.G.G.G.G.L.K.L.( 8.z Q.W X , t.e.8.2 9.  U Q.m.6.F.K./ G.L.).).^.^.^.).M..._.).).).).).).'.L.' L.L.",
"(.(.^.{ d.^.K.L.L.L.L.L.' K.^.F.F.F.F.F.C.F.a x , < & > d e.9.8.2 e., % 7 & 9 x.S.' G.L.(.(.^.L.L.(.M...).(.(.(.(.(.(.).J.] L.F.",
"D.D.A.^ _ V.b.Z.b.b.b.b.T s.j.h.j.j.h.h.h.j.T d.h.k p z l l l k 1 k l p k l Z.D.k.T h.j.D.D.D.b.b.D.+.' S.D.D.D.D.D.D.D.pX@.j.j.",
"' ' ' ' ' ] ~ P ~ ] ' ' ' ] ' _ T T ' ' ' ' ' ' } } ~ E ' ] ' ] ] ' _ ' E  .' X.X.X.X.O. .~ P / ' ' ' ' ' ' } T W  .' 8XvXrXO.' ",
").).).).).^.C.~ V.(.).).).).).).h.| _.(.).).).).).^.a.#.+X(.).).).).).L.] '.(.E.E.E.E.E.`.Z.} ^.(.).).).).(.^.| d.(.L.L.uX@XL.L.",
"(.(.(.(.(.L.J.~ z.L.(.(.(.(.(.^.s.} ).P.(.(.(.(.`.L.a.$.oXL.(.(.(.(.(.K.' `.L.C.C.C.C.V.G.b.} '.P.(.(.(.(.(.G.[ { G.V.C.C.C.C.C.",
"(.(.(.(.(.(.`./ A.(.(.(.(.(.(.(.k. .].(.(.(.(.(.`.L.a. .'.P.(.(.(.(.(.K.] `.L.C.J.A.J.C.L.b.} ).(.`.(.(.(.(.L.[ { G.C.F.C.C.C.F."
};
