/* XPM */
static const char *exit[] = {
/* columns rows colors chars-per-pixel */
"64 64 174 2 ",
"   c #402518",
".  c #422A1E",
"X  c #442E22",
"o  c #463024",
"O  c #4B3225",
"+  c #4D3528",
"@  c #513526",
"#  c #513729",
"$  c #55392A",
"%  c #593C2D",
"&  c #523D31",
"*  c #4B433D",
"=  c #564034",
"-  c #5C4335",
";  c #53453D",
":  c #5E4638",
">  c #614535",
",  c #624738",
"<  c #654A3B",
"1  c #684D3D",
"2  c #4E4641",
"3  c #504742",
"4  c #534A45",
"5  c #5D4C43",
"6  c #544E4A",
"7  c #5B4F4A",
"8  c #5D524C",
"9  c #565656",
"0  c #575857",
"q  c #5F5954",
"w  c #575758",
"e  c #585758",
"r  c #575858",
"t  c #585859",
"y  c #614E43",
"u  c #655145",
"i  c #685242",
"p  c #61554E",
"a  c #695549",
"s  c #605752",
"d  c #645A54",
"f  c #6B5E56",
"g  c #655E58",
"h  c #5F605F",
"j  c #6F6057",
"k  c #6A625C",
"l  c #716257",
"z  c #736358",
"x  c #646464",
"c  c #6B6562",
"v  c #6C6C6C",
"b  c #706965",
"n  c #706F6F",
"m  c #71706D",
"M  c #757575",
"N  c #797775",
"B  c #777877",
"V  c #7B7977",
"C  c #777778",
"Z  c #787778",
"A  c #777878",
"S  c #7B7B7B",
"D  c #92745D",
"F  c #957762",
"G  c #957963",
"H  c #997C67",
"J  c #947A68",
"K  c #807C77",
"L  c #817E7B",
"P  c #9C826D",
"I  c #85817D",
"U  c #8B857E",
"Y  c #968170",
"T  c #90877E",
"R  c #90887F",
"E  c #A18771",
"W  c #A48A75",
"Q  c #A48D7A",
"!  c #AB927D",
"~  c #7E7F80",
"^  c #7F8081",
"/  c #828383",
"(  c #8C8680",
")  c #8E8982",
"_  c #898989",
"`  c #938B82",
"'  c #998E84",
"]  c #9C9185",
"[  c #979088",
"{  c #9B9389",
"}  c #979897",
"|  c #9B9B9B",
" . c #A29385",
".. c #AC9581",
"X. c #AF9987",
"o. c #A1968A",
"O. c #A3998C",
"+. c #AF9A89",
"@. c #B19A85",
"#. c #B39E8B",
"$. c #B7A08C",
"%. c #B9A38E",
"&. c #BBA692",
"*. c #BEA996",
"=. c #BEAC99",
"-. c #B2A395",
";. c #AAAAAA",
":. c #C1AB97",
">. c #C2AD99",
",. c #C5B19D",
"<. c #C8B39F",
"1. c #C5B4A1",
"2. c #C9B6A2",
"3. c #CBB9A6",
"4. c #CDBDAB",
"5. c #D1BEAA",
"6. c #CCBFB0",
"7. c #CEC0AF",
"8. c #D1C1AE",
"9. c #CFC2B1",
"0. c #D1C3B3",
"q. c #D4C5B2",
"w. c #D7C9B6",
"e. c #DACBB6",
"r. c #D7C9B8",
"t. c #D9CBBB",
"y. c #DBCDBB",
"u. c #DFD1BE",
"i. c #E1D2BF",
"p. c #C1C1C1",
"a. c #DED3C2",
"s. c #D0D0D0",
"d. c #E2D4C2",
"f. c #E5D8C5",
"g. c #E9D9C6",
"h. c #E6D9C8",
"j. c #EADCCA",
"k. c #EBDDCA",
"l. c #EDE0CE",
"z. c #F0E1CF",
"x. c #EFE6D4",
"c. c #EFE3D1",
"v. c #F1E5D3",
"b. c #F3E7D5",
"n. c #F2E5D3",
"m. c #F5E8D6",
"M. c #F7EBDA",
"N. c #F6EBDA",
"B. c #F8EBDA",
"V. c #F8ECDB",
"C. c #FAEEDD",
"Z. c #FAEEDD",
"A. c #FAEEDC",
"S. c #F5F0DE",
"D. c #FBF0DE",
"F. c #FCF1DF",
"G. c #E2E2E2",
"H. c #F7F1E0",
"J. c #FDF1E0",
"K. c #FEF2E1",
"L. c #FFF4E2",
"P. c #FCF5E2",
"I. c #FEF7E6",
"U. c #FEF6E5",
"Y. c #FEF4E3",
"T. c #FFF8E7",
"R. c #FFF8E7",
"E. c #FFFBEA",
"W. c #FFFCEA",
"Q. c #FFFFEF",
"!. c #FFFDEC",
"~. c #FFFCEB",
"^. c #FFFFF1",
"/. c #FFFFFA",
/* pixels */
"9 9 9 9 9 9 9 9 9 9 9 9 9 9 9 9 9 9 9 9 9 9 9 9 9 9 9 9 9 9 9 9 9 9 w 9 9 9 9 9 9 9 w w r r w r 9 9 9 9 9 9 9 9 9 9 9 9 9 9 9 9 ",
"9 9 9 9 9 9 9 9 9 9 9 9 9 9 9 9 9 9 9 9 9 r 9 9 9 9 9 9 9 9 9 9 9 9 9 9 9 9 9 9 9 w 9 w 9 9 r r r 9 w 9 w 9 9 9 9 w r 9 9 9 9 9 ",
"9 9 9 9 9 9 9 9 9 9 9 9 9 9 9 9 9 9 9 9 9 9 9 9 9 9 9 9 9 9 9 9 9 9 9 9 9 9 9 9 9 9 9 9 w 9 r r r r w r 9 w w r r w w w 9 9 9 9 ",
"r 9 9 9 9 9 9 9 9 9 9 9 9 9 9 9 9 9 9 w r r 9 9 9 9 9 9 9 9 9 9 9 9 9 9 9 9 9 9 9 9 9 9 9 r r r r r r r 9 r r r r w w e 9 9 9 9 ",
"9 w w w 9 9 9 9 9 9 9 9 9 9 9 9 9 9 9 9 r w 9 r 9 9 9 9 9 9 9 9 9 w r w 9 9 9 9 9 9 9 9 9 9 w r r r r r r r r r r r w 9 9 9 9 9 ",
"w r w w 9 9 9 9 9 9 r r r 9 9 9 9 9 r w w 9 9 9 9 9 9 9 9 9 9 9 9 w r r 9 9 9 9 9 9 9 9 9 9 9 9 r r w r r r r r r r r 9 9 9 9 r ",
"e e 9 9 9 r 9 9 9 9 r r w w 9 9 9 9 w w w 9 9 9 9 9 9 9 9 9 9 9 w e e w w 9 9 9 9 9 9 9 9 9 9 9 9 9 r r r r r r r r r w 9 w 9 r ",
"9 9 r 9 9 9 9 9 9 9 w r r 9 9 9 9 9 9 e 9 r 9 9 9 9 9 9 9 9 9 w e e e w w 9 9 9 9 9 9 9 9 9 9 9 9 9 w r r r r r r r w r 9 9 9 r ",
"9 9 w 9 9 9 9 9 9 9 r w w w 9 9 9 9 9 9 w r r 9 9 9 9 9 9 9 9 e r r r e 9 9 9 9 9 9 9 9 9 9 9 9 9 9 9 r r r r r r r 9 e r w 9 9 ",
"9 9 9 9 9 9 9 9 9 9 9 9 9 9 9 9 9 9 9 r r 9 r 9 9 9 9 9 9 9 9 9 r w r 9 9 9 9 9 9 9 9 9 9 9 9 9 9 9 9 r r r w r r w r r r r r r ",
"9 r r 9 9 9 9 9 9 9 9 9 9 9 9 9 9 9 r r r r 9 9 9 9 9 9 9 9 9 9 r w e 9 9 9 9 9 r 9 9 9 9 9 9 9 9 9 r 9 w 9 9 9 w r 9 w r r 9 9 ",
"w r w 9 9 9 9 9 9 9 9 9 9 9 9 9 9 9 e e e 9 9 9 9 9 9 9 9 9 9 9 9 9 9 9 9 9 9 9 9 9 w r r r e 9 9 9 9 w 9 9 9 9 e r 9 r e w 9 9 ",
"w e 9 9 9 9 9 9 9 9 9 9 9 9 9 9 9 w 9 9 r 9 9 9 9 9 9 9 9 9 9 9 9 9 9 w 9 9 9 9 9 9 9 9 r r r 9 9 9 9 9 9 9 9 e r 9 9 w 9 r r 9 ",
"9 w w 9 9 9 9 9 9 9 9 9 9 9 9 9 9 9 9 9 r 9 9 9 9 9 9 9 9 9 9 9 9 9 9 9 9 9 9 9 9 9 9 9 r r w 9 9 9 9 9 w r r r r r w r r r 9 9 ",
"9 9 9 9 9 9 9 9 9 9 9 9 9 9 9 9 9 9 9 9 9 9 9 9 r x x x x x x x x v x x x x x x x t 9 w r r r r 9 9 9 9 9 r r w r 9 w r r w 9 w ",
"9 9 9 9 9 9 9 9 9 9 9 9 9 9 9 9 9 9 9 9 9 r r t x v M M M M B A A A A M M v v v v x r r r 9 9 9 9 9 9 9 9 r 9 9 e r r w r e w 9 ",
"9 9 9 9 w r r r r r r r r t t t x v M M M S S A S S S S S S S S S S S S A A A A A M M M v v v c x t r e 9 9 9 r r r e r r 9 r 9 ",
"w 9 9 w 6 2 4 4 4 4 6 6 6 8 s q g k k c k k k k k g b S S S S S S A S S S S S S S S S A A A A A A M M v x r r 9 9 9 9 w 9 9 9 9 ",
"w w 9 r * X X X o + # $ $ $ @ $ $ @ + @ $ O X . X . ; ) I I L I S S S S S S S S S S A A A B A A S S S A A M v x r 9 9 9 9 9 9 9 ",
"9 w 9 r 2 + -.9.3.q.Q 1.0.7.9.Q 3.9.7.4.Q 6.4.6.1.= 5 ) ( ( I I S S S S S A S S S S A A A A S S S S S A S A A B M t 9 9 9 9 9 9 ",
"9 9 9 r 3 + a.!.P.!.1.x.!.U.!.=.A.E.E.T.*.U.T.E.N.- 5 ) U ( ( I I L S S S S S A A A A A A A S S S A S S S S S A A M v t 9 9 9 9 ",
"9 9 9 t 4 $ r.J.m.L.>.j.J.B.F.&.v.C.C.V.&.N.V.C.c., 5 ` ) ) ( I I I S S S S A A A M A A A A S S S A S S S S S A A S S M x r 9 9 ",
"9 9 t m p $ t.U.B.T.>.j.L.C.L.*.b.J.D.C.&.C.C.F.v.1 5 { ` ) ( I I I I S S S S A A A A A A A S S A A A S S S S S S S A A A M t r ",
"r x M I f $ y.E.N.J.,.l.T.F.T.*.N.U.L.J.&.J.J.U.b.< u { ` ` ) I I I I I S S A A S A A A A A S S S A A S S S S S S S S S A A M x ",
"x N K ( f $ w.m.y.h.:.d.m.v.N.&.k.m.b.v.#.v.v.b.h.< u { ' ' ` U U I I I S S A A S A A S A A A S S A A A S S S S S S S S A A A M ",
"V K L ) j % @.$...#.H ..,.>.,.E *.>.:.*.P :.*.:.&.< y ] ' ' ` ` U I I I S A S S S S S A A S S S S A A A A S S S S S S S A S A A ",
"K L I ` l $ u.C.y.i...y.T.L.E.>.A.T.U.U.=.L.U.T.N.1 y { ' ' ` ) U U I I S A A S S S A A S S S S S A A A A S S S S S S A A A S A ",
"I I U ` l $ r.c.u.w.! 3.l.D.L.*.m.J.D.D.&.C.C.J.v.1 u { ' ' ` R ) ) U I L A A A S S A A S S S S S A S S S S S S S S S S S S S S ",
"I I U { l $ y.C.w.e.! ,.q.u.T.*.m.L.F.D.&.C.F.J.v.< u { ' ' ' ` ) ) ( I I S S S S S A A A S S S S S S S S S A A S S A A S S S S ",
"I U U { l $ t.U.i.w.! 1.q.4.h.:.b.J.C.C.&.C.C.J.v.< y o.] ' ' ` ` ) U I I L S S S A M A A S S S S S S S A S S S S S A A A S S S ",
"U U U { z $ a.!.m.y...3.t.w.w.&.H.E.E.T.=.U.T.E.A.< y o.{ ] ' ` ` ) ) U I I S S S A A A A S S S S S S S A A S S S S A S A S S S ",
"U ) ` { z % ..,.:.#.D W ..! ! G >.2.>.>.E >.>.<.&.> u o.{ ] ] ' ` ` ) ( I I S S S A A A A S S S S S S A A A S S S S A A A S S S ",
"U U R { z % 4.z.j.i.E *.2.,.3.P 5.i.1.,.! k.k.l.d.< u o.] { ' ' ' ` U U I I K S S A A A S S S S S S S A A A A A A S S A A S S S ",
"U U R { z $ a.E.J.J.@.2.w.0.w.! 4.q.0.8.W h.U.T.N.1 u  .' { ] ' ` ` U U I K S S S A A A S S S S S S S S S S A A S S A A A S S S ",
"U ) T { z $ e.U.B.U.*.,.q.8.0.Q 3.0.4.u.&.b.C.J.c.1 u o.{ { ] ' ` ` U U I K S A A Z A A A S S S S S S S S S S S S A A A A S A S ",
"U U T { z $ e.L.B.U.>.3.8.8.8.Q 3.8.8.m.=.D.C.T.S.1 u O. .{ ' ' ` ` ) U I K S A A S A A A A S S S S S S S S S S A A A A A S S A ",
"( U T { z $ a.!.J.!.1.j.j.e.w.! 8.q.v.T.*.U.~.c.=.< u O. .{ ] ' ` ) ) U I K V A S S S S S S S S S S S S S S S A A S A A A S S S ",
"U U U ] z $ ,.g.y.y.! 4.8.*.>.E %.,.i.d.@.y.j.Y . - a o.{ { ' ' ` ` ) U I K S A S S S S S S S S S S S S S S S S S S S A S S S S ",
"U U U ] l $ #.5.:.@.H Q @.@.@.F X.2.2.2.Q ,.4.J O - a O.{ { ' ' ` R ) U I K S S S S S S S S S S S S S S S S S S S S S S S S S S ",
"U ) T ] l $ a.!.j.f.@.3.w.N.f.! f.!.!.E.=.U./. .  - a o.' ' ' ` ` ) U I I K S S S A S S S S S S S S S A A S S A S S S S S S A A ",
"U ) U ] l $ t.U.v.e.Q 1.j.J.m.@.e.u.c.C.&.N.E.=.i > u o.' ' ' ` ` ) U U I K S S S A A S S A S A S S S A S S A A A S S S S S S A ",
"U U U ' l # e.U.V.F.$.d.T.D.D.&.j.m.c.C.*.C.D.U.b.< u O.] ' ' ' ` ) ) U I I S S S S A S A A A S S S A A S S A A A S A S A S A S ",
"I U U ] l # y.E.C.~.1.c.T.J.T.*.A.E.U.L.*.J.L.U.m.< u O.] ' ' ' ` ) ) U I I S S A A A A A A S S S S A A S S S S S A A A A S A S ",
"I U U ] l # 0.N.l.B.*.i.m.v.m.%.j.b.v.v.#.v.v.b.h.< u o.' ' ' ' ` ) ( I I L S A A A A A A S A S S S S A S A C C A S A S A A S S ",
"( U U [ l $ ..,.:.,.P $.,.:.>.E *.>.>.*.P :.>.>.&., u { ' ' ' ` ` ) U I I S S A S S A A S S S A S S S S S S S A A S S S S A S S ",
"( ( U [ l # a.!.J.!.,.c.E.L.E.>.A.E.U.U.*.U.U.T.N.1 u { ' ` ' ` ) U I L L S S A A A A S S A S A S S S S S S A A S S S A S S S S ",
"I ( U ` l # e.U.N.U.>.j.L.C.L.*.b.J.D.C.&.C.C.J.v.1 u { ' ' ` ) U U I K S S A A A A S A A A S S S A S A S S A S S S S S S S S S ",
"L I U ` j # y.U.V.U.>.k.U.C.L.*.m.J.F.C.&.C.D.J.b.< u { ' ' ` U U I K V S A A A A A S A A A S S S A S A S S S S S S S S S S S S ",
"L I I ) j # e.L.N.U.>.j.J.V.J.*.b.J.C.C.&.V.C.F.v.< y { ` ` U U I I K S S S S S S S A A A A A M A A A A A S S S S S S S S S S S ",
"I L L ) f # a.^.U.^.,.x.!.T.!.>.H.!.E.E.=.E.E.~.A.< 5 ` U U U U I L S S S S S S S S A A A A A M M M A A S S S S S S S A A A A S ",
"S S L ( d # #.4.2.4.E *.3.2.3.E ,.3.2.2.W 2.2.3.>.: 5 ) U U I I K L S A A S S S S S S S S M M A A A A S S S S S S S S A S S S S ",
"S S S / d # 1.h.y.h.@.8.d.i.d...y.d.d.i...y.i.d.w., 5 ) U U I I S S S A A S A S S S S A S A B Z A A S S S S S S S S S S S A S S ",
"S S S / d + a.!.J.!.,.c.~.U.E.>.A.E.U.U.*.U.U.E.N., 5 ) U I L K S S A A A S S S S S S A A A A A A S S S S S S S S A S A A A A A ",
"S S S / d + t.L.N.U.:.j.J.C.J.*.b.F.C.C.&.V.C.F.v.: 5 ( I K S S S A A A A S S S S S S S S S S S S S S S S S S S S A A A S A A S ",
"S S S / s O r.L.N.U.>.j.J.V.J.*.b.F.C.C.&.C.C.F.v.- 5 ( K S S S A A A A A S S S A A A S A A A S S A S S S S S S A A M A S A S S ",
"S S S / s o e.T.V.E.>.k.U.F.U.*.N.L.J.F.&.F.F.L.b.- 3 / S A A A A A A S S S A A A A S A S S A S S S A S S A S A A A A A S S A S ",
"S S S / s X 9.N.l.N.&.d.m.c.m.#.j.b.c.c.#.c.v.b.h.= 3 S A A A S A A S S A A A A A A A A A A S S S S S S S A S A A S S S S A A S ",
"S S S / 8 . & - : : - , < < < - < , , , > : - - - X ; ^ A S S S S S S A A S S A A S S S A S S S S S S S S A A A A A A S A S A A ",
"S S S S c 8 8 8 7 8 8 8 8 8 8 8 8 8 p p p 8 8 8 8 8 k S A S S S S S S S S S A A A A S S S S S S S S S S A S A A A A A A A A A A ",
"S S S A S S ~ ~ ^ ^ ^ S ~ ~ S ^ S S S ^ ^ ^ / / / / ^ A S S S S S S S S A S A A A A S S S S S S S S S S S S A A A A A S | | _ M ",
"A A A A A A A A A A S A S S A A A A A B A A S S S S A A S S S S S S S A A S S A A A A S S S S S S S S S S A A A S S M | s.G.p./ ",
"A A A A A S S S A A S S S A A A S S A A A S S S S A S S S S S S S S S A A A A A S A S S S S S S S S S S S A A A A A A / ;.p.;.A ",
"S S S S S S S A A A S S S A S A A A A A S S S S S S S S S S S S S S S A A A A S S S S S S S S S S S S S S S A A A A A A M / A A ",
"S S A S S S S S A S S S S S S A A S S S S S S S S S A A S S S S S S S A M A S A S S S S S S S S S S S S S S S A A S A A S S A S "
};
