/* XPM */
static const char *finalE[] = {
/* columns rows colors chars-per-pixel */
"64 64 194 2 ",
"   c #1F171F",
".  c #1F181F",
"X  c #23161F",
"o  c #381E13",
"O  c #3B251C",
"+  c #3E291E",
"@  c #1F1720",
"#  c #1F1820",
"$  c #261622",
"%  c #291723",
"&  c #221821",
"*  c #2B1825",
"=  c #2E1A29",
"-  c #341C2C",
";  c #381D2E",
":  c #311C27",
">  c #3D1E30",
",  c #2A202E",
"<  c #26212E",
"1  c #392720",
"2  c #3E2B23",
"3  c #33222F",
"4  c #3C242E",
"5  c #2C2534",
"6  c #2E2738",
"7  c #2F2838",
"8  c #342635",
"9  c #3E2131",
"0  c #322836",
"q  c #32293A",
"w  c #3C2C3C",
"e  c #342738",
"r  c #422C1F",
"t  c #422C24",
"y  c #492E22",
"u  c #442C28",
"i  c #492D29",
"p  c #463024",
"a  c #4B3124",
"s  c #47322B",
"d  c #4D3528",
"f  c #513628",
"g  c #543A2B",
"h  c #55392A",
"j  c #462336",
"k  c #482336",
"l  c #4B2B3D",
"z  c #51273B",
"x  c #53283C",
"c  c #573E30",
"v  c #5A3F30",
"b  c #54363D",
"n  c #63293F",
"m  c #4C443F",
"M  c #5C4132",
"N  c #52453C",
"B  c #6B503F",
"V  c #654A3A",
"C  c #3D2E40",
"Z  c #3F3041",
"A  c #4B2E40",
"S  c #5E2C41",
"D  c #4B3440",
"F  c #453548",
"G  c #553242",
"H  c #4A3C51",
"J  c #642B41",
"K  c #4F4945",
"L  c #4D4742",
"P  c #534A44",
"I  c #5B4D44",
"U  c #534E4B",
"Y  c #554740",
"T  c #5D544E",
"R  c #56524F",
"E  c #53435C",
"W  c #545455",
"Q  c #5E5550",
"!  c #565758",
"~  c #575859",
"^  c #5B5B5B",
"/  c #604D40",
"(  c #655143",
")  c #6C5343",
"_  c #60554F",
"`  c #6B5748",
"'  c #6E5849",
"]  c #735A4A",
"[  c #715747",
"{  c #645554",
"}  c #645B55",
"|  c #675658",
" . c #675E58",
".. c #685A59",
"X. c #5F605F",
"o. c #69625C",
"O. c #5E5E60",
"+. c #646464",
"@. c #6D6966",
"#. c #6C6B6B",
"$. c #676665",
"%. c #726E6A",
"&. c #746D66",
"*. c #7D736B",
"=. c #75726F",
"-. c #6F7070",
";. c #767676",
":. c #787777",
">. c #777877",
",. c #797877",
"<. c #777778",
"1. c #787778",
"2. c #777878",
"3. c #7A7A7A",
"4. c #81766C",
"5. c #82786C",
"6. c #9A7E69",
"7. c #957963",
"8. c #817C77",
"9. c #827F7A",
"0. c #7D807F",
"q. c #9B826D",
"w. c #85817D",
"e. c #8A847D",
"r. c #9B8573",
"t. c #9D8877",
"y. c #A48A75",
"u. c #A58F7B",
"i. c #A48A75",
"p. c #AB947E",
"a. c #7E7F80",
"s. c #7E8180",
"d. c #8E8882",
"f. c #888583",
"g. c #948C83",
"h. c #9E8F82",
"j. c #999999",
"k. c #AD9682",
"l. c #AD9885",
"z. c #A99787",
"x. c #B29B86",
"c. c #B49E8A",
"v. c #B5A18D",
"b. c #BAA38E",
"n. c #B4A495",
"m. c #BBA692",
"M. c #BDA995",
"N. c #B6A798",
"B. c #B8A798",
"V. c #BCAB9B",
"C. c #B6A898",
"Z. c #BEBEBE",
"A. c #A5A5A5",
"S. c #C0AA96",
"D. c #C2AE9A",
"F. c #C5B29D",
"G. c #C8B49F",
"H. c #C6B5A1",
"J. c #C9B5A1",
"K. c #CCBAA6",
"L. c #CDBDAA",
"P. c #CBBFB0",
"I. c #CEC0AD",
"U. c #D2C2AE",
"Y. c #CCC0B0",
"T. c #D4C5B3",
"R. c #D6C9B6",
"E. c #D9CAB6",
"W. c #DBCEBB",
"Q. c #D7CBBB",
"!. c #DED2BE",
"~. c #E0D2BE",
"^. c #DFD2C0",
"/. c #CACACA",
"(. c #E3D5C3",
"). c #E6D9C6",
"_. c #E8DBC7",
"`. c #E6DAC9",
"'. c #EADDCB",
"]. c #E4D7C8",
"[. c #EDE1CF",
"{. c #EEE2D1",
"}. c #F2E5D4",
"|. c #F5E8D7",
" X c #F5EAD9",
".X c #F9EEDC",
"XX c #FBF0DF",
"oX c #FFF6E5",
"OX c #FEF4E3",
"+X c #FFF8E7",
"@X c #FFFEED",
"#X c #FFFCEB",
"$X c #FFFFF1",
"%X c #FFFFFB",
/* pixels */
"W W W W W W W W W W W W W W W W W W W W W W W W W W W W W W W W W W W W W W W W W W W W W W W W W W W W W W W W W W W W W W W W ",
"W W W W W W W W W W W W W W W W W W W W W W W W W W W W W W W W W W W W W W W W W W W W W W W W W W W W W W W W W W W W W W W W ",
"W W W W W W W W W W W W W W W W W W W W W W W W W W W W W W W W W W W W W W W W W W W W W W W W W W W W W W W W W W W W W W W W ",
"W W W W W W W W W W W W W W W W W W W W W W W W W W W W W W W W W W W W W W W W W W W W W W W W W W W W W W W W W W W W W W W W ",
"W W W W W W W W W W W W W W W W W W W W W W W W W W W W W W W W W W W W W W W W W W W W W W W W W W W W W W W W W W W W W W W W ",
"W W W W W W W W W W W W W W W W W W W W W W W W W W W W W W W W W W W W W W W W W W W W W W W W W W W W W W W W W W W W W W W W ",
"W W W W W W W W W W W W W W W W W W W W W W W W W W W W W W W W W W W W W W W W W W W W W W W W W W W W W W W W W W W W W W W W ",
"W W W W W W W W W W W W W W W W W W W W W W W W W W W W W W W W W W W W W W W W W W W W W W W W W W W W W W W W W W W W W W W W ",
"W W W W W W W W W W W W W W W W W W W W W W W W W W W W W W W W W W W W W W W W W W W W W W W W W W W W W W W W W W W W W W W W ",
"W W W W W W W W W W W W W W W W W W W W W W W W W W W W W W W W W W W W W W W W W W W W W W W W W W W W W W W W W W W W W W W W ",
"W W W W W W W W W W W W W W W W W W W W W W W W W W W W W W W W W W W W W W W W W W W W W W W W W W W W W W W W W W W W W W W W ",
"W W W W W W W W W W W W W W W W W W W W W W W W W W W W W W W W W W W W W W W W W W W W W W W W W W W W W W W W W W W W W W W W ",
"W W W W W W W W W W W W W W W W W W W W W W W W W W W W W W W W W W W W W W W W W W W W W W W W W W W W W W W W W W W W W W W W ",
"W W W W W W W W W W W W W W W W W W W W W W W W W W W W W W W W W W W W W W W W W W W W W W W W W W W W W W W W W W W W W W W W ",
"W W W W W W W W W W W W W W W W W W W W W W W W W ^ +.+.+.+.$.+.+.$.$.$.+.+.+.+.+.X.W W W W W W W W W W W W W W W W W W W W W W ",
"W W W W W W W W W W W W W W W W W W W W W ~ ~ ~ ^ $.#.;.;.;.;.;.;.;.;.;.;.#.@.@.@.$.W W W W W W W W W W W W W W W W W W W W W W ",
"W W W W W ! W ! ~ ! ! ! ! ~ ^ ^ ^ $.#.;.-.2.3.3.3.3.3.3.a.a.3.s.s.3.3.a.a.3.3.3.3.2.;.;.;.#.#.#.$.+.O.~ ~ ! W W W W W W W W W W ",
"W W W W W L L P P K P P P P T Q { }  .o. .}  .o.} } }  .} }  . .} } }  .} }  . .}  . . .} } } } } } { T P U ~ W W W W W W W W W ",
"W W W W K p p p a f f f h h f h h f d d h f a t t p t O 1 1 1 1 1 1 1 1 1 1 1 1 1 1 1 1 1 1 1 1 1 1 1 2 t Y ;.$.~ W W W W W W W ",
"W W W ! U t h.W.Y.^.z.V.Q.T.W.z.H.Q.R.R.u.L.R.Y.P.( 2 # & & & & & & & & & & & & & # # # # # # # # # & # 2 I 3.;.;.@.W W W W W W ",
"W W W ! U t V.$XOX$XK.(.@XOX@XF.{.#XOX@XV. X+XOXOX` 2 & & & & & & & & & & & & & & & & & & & & & & & & & t I 3.3.3.;.;.+.W W W W ",
"W W W ~ R a N.OX}.OXH.W.OX XOXD.).OX XOXm.[..X X|.` 2 & & & & & & & & & & & & & & & & & & & & & & & & & 2 I f.3.>.3.3.3.;.^ W W ",
"W W ~ @.o.a V.+X X+XJ.W.OX XOXD._.OX.XOXm.{.XX.X X] 2 . & X & & & & & & & X & & & & & & & & & & & & & # 2 I a.3.3.3.3.3.3.;.$.W ",
"W ^ %.9.&.a V.@X XXXK.(.+XXX#XF.'.+XOX+XM.}.OXOX.X] t . & & & & & & & & X & & & & & & & & & & & & & & # 2 I 3.3.3.3.3.3.3.3.;.#.",
"^ =.8.e.*.a n.|.W.!.D.T.|.'.|.m.W.}.'.}.b.(.{.{.'.[ t   & & & & & & & & & & & & & & & & & & & & & & & @ 2 I s.3.3.3.3.3.3.3.3.;.",
"=.8.8.d.*.f r.m.l.b.6.u.F.S.F.y.b.D.S.D.i.b.S.D.m.B t   & & & & & & & & & & & & & & & & & & & & & & & @ 2 I a.3.3.3.3.3.3.3.3.:.",
"3.9.9.d.*.y V.+X!.(.v.I.OXOX@XG.[.+XOX#XD. X+XOXOX] t @ & & & & & & & & & & & & & & & & & & & & & & & @ 2 I s.3.3.3.3.3.3.3.3.3.",
"9.w.w.g.*.a V.{.E.E.l.D.). XOXD._.OX.XOXM.{.XX.X X] t   & & & & & & & & & & & & & & & & & & & & & & & # 2 I s.3.3.3.3.3.3.3.3.3.",
"9.w.w.g.4.a V.OXE.W.l.M.R.E.OXF.'.OX.XOXM.}.OXXX X] 2 # & & & & & & & & & & & & & & & & & & & & & & & & 2 I 3.3.3.3.3.3.3.3.3.3.",
"9.w.e.g.4.a V.+X`.R.k.V.R.L.(.D._.OX.XOXM.{.XX.X X] 2 & & & & & & & & & & $ $ & & & & & & & & & & & & & t I 3.3.3.3.3.3.3.3.3.3.",
"w.e.e.g.4.y V.$X X!.x.F.E.T.E.v.}.+XOX@XD. X+XOXOX] 2 & & & & & & & & & $ $ $ $ $ $ $ & & $ & & & & & & t I 3.3.3.3.3.3.3.3.3.3.",
"w.e.e.g.4.d q.F.S.v.7.q.k.p.k.7.m.J.D.D.y.M.D.D.D.) t & & & & & & & & & & & & $ $ & & & $ $ $ & & & & & t I 3.3.3.3.3.3.;.3.3.3.",
"w.e.e.g.4.a v.|.'.'.p.v.L.H.L.i.J.).K.K.p.).}.[.'.] t & & & & & & & & & & & & $ & & & & & & & & & & & & u I 3.3.3.3.3.3.>.3.3.3.",
"w.e.e.g.5.a V.@X.XOXm.V.R.U.E.k.H.R.T.R.u.E.OXOX.X] t & & & & & & & & & & & & & & & $ $ & & & & & & & & u I 0.3.3.3.3.3.3.3.3.3.",
"w.e.e.g.4.a V.+X|.OXF.m.R.L.R.p.H.T.L.(.M.'..X.X X] t & & $ & $ $ $ $ $ $ $ $ $ $ $ $ $ $ $ $ $ & & & & u I 3.3.3.3.3.3.3.3.3.3.",
"w.e.e.g.4.a V.+X|.OXK.F.T.U.R.p.F.T.L.|.D.}.XXOX+X] u & $ $ $ $ % % % % $ * = $ $ % $ $ $ $ $ & & $ $ & u I 3.3.3.3.3.3.3.3.3.3.",
"e.e.e.g.4.a V.$XXX$XL.~.[.E.E.k.K.R.[.@XM. X@X{.V.) t & $ $ $ $ % % $ $ $ F E C $ $ $ $ % $ $ $ $ $ & & t I 3.3.3.3.3.3.3.3.3.3.",
"w.e.e.g.4.a k.(.E.E.p.D.U.m.D.y.c.M.E.~.k.U.(.u.O M s & $ $ $ $ $ $ $ X 3 E E H % $ % % % % $ $ $ $ & $ u I 0.3.3.3.3.3.3.3.3.3.",
"w.e.e.g.4.a t.T.D.v.q.y.c.c.c.6.k.K.J.L.u.F.U.r.t M s & $ $ $ $ $ $ $ $ * F H 8 $ % % % $ $ % % % $ & $ u I 3.3.3.3.3.3.3.3.3.3.",
"w.e.e.g.4.y V.$X_.].v.F.E.}.{.p.R.#X@X@XD. X%XC.o M s $ % $ $ $ % $ $ $ % q q , $ % % $ $ % % % % % % $ t I s.3.3.3.3.3.3.3.3.3.",
"w.e.e.g.4.a m.+X}.!.p.V.`..X.Xv.U.!.'.OXM.[.+XK.` V s $ % $ $ $ $ $ $ $ 5 q q q * $ % % % % $ $ % $ % $ u I 3.>.>.3.3.3.3.3.3.3.",
"w.w.w.g.*.a V.+X XOXM.T.+X.XOXD.~..X[.OXM.}.OXOXXX] t $ % $ $ $ $ $ $ % 6 q q 0 5 $ $ $ % $ $ $ % % $ $ t I 3.3.;.3.3.3.3.3.3.3.",
"9.w.e.g.4.y V.@X.X@XL.(.+XXX#XD.{.#XOX+XD.|.OXOX.X] t $ % % $ $ $ $ $ * 6 q 7 5 5 $ % $ $ $ $ % $ $ $ $ u I 3.3.3.3.;.3.3.3.3.3.",
"9.w.e.g.*.a v.|._.|.S.U.}.'.|.m.W.}.'.}.c.(.}.[.'.] t $ % $ $ $ $ $ $ , 5 6 6 5 5 * % % $ % % % $ $ % $ t I 3.;.:.3.3.3.3.3.3.3.",
"w.w.w.g.*.f r.G.D.J.y.x.G.D.J.y.b.F.D.F.q.m.F.D.M.) t $ $ $ $ $ $ $ $ 3 0 5 6 5 w = $ % $ % % % $ $ $ $ u I 3.3.3.3.3.3.3.3.;.3.",
"w.w.e.g.*.y V.$XXX@XK.(.@XOX@XF.{.@XOX#XD. X+XOXOX] u $ % $ $ $ $ % X 9 w 6 6 5 D = $ % % % $ $ $ $ % $ t I s.3.3.3.3.3.3.3.3.3.",
"9.w.e.g.*.t V.+X|.+XJ.W.OX XOXD._.OX.XOXM.}.XX.X X] t $ % % % % % * $ b e 7 7 5 D 4 $ % % % % % * % % % t I 3.3.3.3.3.3.3.3.3.3.",
"3.9.w.d.*.y V.+X X+XJ.W.OX.X+XD._.OX.XOXM.}.OXXX X] t % % % % % % % % 3 0 6 7 6 8 : % % % % % % * * * % u I 3.3.3.3.3.3.3.3.3.3.",
"3.9.9.d.*.y B.+X|.OXJ.W.OX XOXD._.OX XOXM.{..X.X X] u % * % * * * * * * 7 6 6 7 5 % * % % % * = = * * % t I a.3.3.3.3.3.3.3.3.3.",
"3.3.3.w.&.t V.$XOX$XK.(.$XOX$XH.{.@XOX@XD. X+X+XOX] u = = = = = = = = = 6 7 7 6 6 = = = = = = = = = = = u I a.3.3.3.3.3.;.;.;.3.",
"3.3.3.w.&.a r.K.F.K.u.c.K.G.K.i.M.K.G.K.i.D.J.H.F.) u = - - - - - - - - 5 < , 5 = - - - - - - = = = = = t I a.3.3.3.3.3.3.3.3.3.",
"3.3.3.w.%.a z.'.~.'.b.K.'.(.'.c.T._.(._.x.W.(.(.~.` u - - - - - - - - - 5 5 = 5 - - - - - - - - - - - - t I a.3.3.3.3.3.3.3.3.3.",
"3.3.3.w.%.t V.@X.X@XK.(.@XOX@XF.[.+XOX+XM. XOXOXOX' t ; ; ; ; ; ; ; ; - 8 w ; w ; ; ; ; ; ; ; ; ; ; ; ; u I a.3.3.3.3.3.;.;.;.;.",
"3.3.3.3.%.t N.+X|.OXJ.W.OX XOXD._.OX.XOXM.{.XX.X X` u 9 9 9 9 9 9 9 9 > 9 e 9 w > j 9 9 9 9 9 9 9 9 9 9 u I a.3.3.3.1.;.;.3.;.3.",
"3.3.3.3.@.r n.+X|.OXJ.W.OX XOXD._.OX.XOXm.{..X.X X( u j j j j j j j j k D w j Z l k k k k k k k j j j j u Y 3.3.3.3.;.;.3.3.3.3.",
"3.3.3.3.@.+ N.@X.X#XK.(.+XXX#XF.'.+XOX+XM.}.OXOX.X( i z z z z z z z z x G l z A G x x x x x x x z z z z u Y 3.>.;.;.;.;.2.3.3.3.",
"3.3.3.3.@.+ z.}.(.{.m.L.{.`.{.v.E.{.`.{.c.^.'.`.`./ i S S S S S S S S S S J J J J J J J S S S S S S S S i Y 3.:.;.3.3.3.3.3.3.3.",
"3.3.3.3.$.r d g c c c M M M M c M M M M M v g g g p i n n n n n J n J J J J J J J J J J J J J n n n n J y N 3.;.;.<.3.3.3.3.3.3.",
"3.3.3.3.%.T Q T T T { T _ { T T T T { { { T { T T { { | | | | | | | | | | { | { { { | | | | | | | | | | T o.3.;.;.;.3.;.;.3.;.3.",
"3.3.3.3.3.3.3.3.3.3.a.3.3.3.3.3.3.3.3.3.3.3.a.s.s.a.3.3.3.3.s.0.0.0.0.3.3.3.3.3.2.3.3.3.3.s.s.s.s.s.s.s.s.3.3.;.;.2.2.3.j.3.j.;.",
"3.3.3.2.;.;.;.;.>.3.3.:.>.3.;.;.:.>.;.;.;.;.3.3.3.3.3.;.3.3.3.3.3.3.3.:.;.;.3.1.;.>.;.1.3.3.3.3.3.3.3.3.3.3.3.>.;.3.;.j./././.A.",
"3.3.;.;.3.3.3.3.3.;.3.3.3.3.;.;.3.3.3.;.;.3.3.3.3.3.3.3.3.3.3.3.3.3.3.3.;.;.1.;.3.3.3.3.3.3.3.3.3.3.3.3.3.3.3.3.;.;.>.3.j.j.Z.f.",
"3.3.3.3.3.3.3.3.3.3.3.3.3.3.3.3.3.3.3.3.3.3.3.3.3.3.3.3.3.3.3.3.3.3.3.3.;.;.3.3.3.3.3.3.3.3.3.3.3.3.3.3.3.3.3.1.;.;.;.;.;.;.3.;.",
"3.3.3.3.3.3.3.3.3.3.3.3.3.3.3.3.2.3.3.3.3.3.3.3.3.3.3.3.3.3.3.3.3.3.3.3.;.;.3.3.3.3.3.3.3.3.3.3.3.3.3.3.3.3.3.3.3.3.3.;.3.3.3.3."
};
