/* XPM */
static const char *floor[] = {
/* columns rows colors chars-per-pixel */
"64 64 195 2 ",
"   c #3E3B3C",
".  c #443B3B",
"X  c #4D3C3A",
"o  c #563C37",
"O  c #5B3D37",
"+  c #513D3A",
"@  c #5A3F39",
"#  c #7C3F2F",
"$  c #623E36",
"%  c #6C3E33",
"&  c #743F32",
"*  c #7A3F30",
"=  c #4D413E",
"-  c #55413D",
";  c #5B423C",
":  c #7E402F",
">  c #654037",
",  c #6D4035",
"<  c #64433B",
"1  c #6C4539",
"2  c #6C483E",
"3  c #744235",
"4  c #7C4131",
"5  c #7E4130",
"6  c #7E4132",
"7  c #7F4233",
"8  c #7D4132",
"9  c #794234",
"0  c #7F4334",
"q  c #7E4334",
"w  c #7A4436",
"e  c #7C4233",
"r  c #744639",
"t  c #794738",
"y  c #7C4738",
"u  c #75483B",
"i  c #7C4A3A",
"p  c #4C4545",
"a  c #4D4847",
"s  c #474343",
"d  c #534644",
"f  c #5A4741",
"g  c #554946",
"h  c #5C4B45",
"j  c #554B49",
"k  c #5B4D49",
"l  c #5D514D",
"z  c #5F5450",
"x  c #644D45",
"c  c #6A4E45",
"v  c #634F48",
"b  c #724F43",
"n  c #675047",
"m  c #6B5147",
"M  c #66514A",
"N  c #6B5249",
"B  c #6D584F",
"V  c #745246",
"C  c #7B5345",
"Z  c #735449",
"A  c #7A5749",
"S  c #75594E",
"D  c #7D594B",
"F  c #675851",
"G  c #6D5A51",
"H  c #645650",
"J  c #745C51",
"K  c #7C5E51",
"L  c #7C6054",
"P  c #813F2E",
"I  c #82402F",
"U  c #84412F",
"Y  c #814333",
"T  c #804232",
"R  c #824332",
"E  c #814231",
"W  c #844231",
"Q  c #854332",
"!  c #874231",
"~  c #814433",
"^  c #834433",
"/  c #844433",
"(  c #874432",
")  c #804334",
"_  c #824535",
"`  c #854635",
"'  c #834332",
"]  c #884532",
"[  c #8A4532",
"{  c #8B4532",
"}  c #864936",
"|  c #8B4A36",
" . c #844B39",
".. c #894A38",
"X. c #8B4B38",
"o. c #8C4B38",
"O. c #8D4D39",
"+. c #914C36",
"@. c #924F39",
"#. c #83503F",
"$. c #8D513B",
"%. c #94523B",
"&. c #9A533B",
"*. c #9A583F",
"=. c #A2593E",
"-. c #835645",
";. c #8A5744",
":. c #855847",
">. c #8C5945",
",. c #845A4A",
"<. c #8C5D4A",
"1. c #935B45",
"2. c #9B5D44",
"3. c #925F4A",
"4. c #9B5F48",
"5. c #915742",
"6. c #825F50",
"7. c #A35C42",
"8. c #AB5E41",
"9. c #8D614F",
"0. c #9C6047",
"q. c #95614B",
"w. c #9C634B",
"e. c #836355",
"r. c #8C6553",
"t. c #846759",
"y. c #896658",
"u. c #84685A",
"i. c #8B6858",
"p. c #946652",
"a. c #966955",
"s. c #9C6A54",
"d. c #996550",
"f. c #9D725E",
"g. c #A56146",
"h. c #AD6245",
"j. c #A4654B",
"k. c #AB664A",
"l. c #A6694E",
"z. c #AD694C",
"x. c #B46546",
"c. c #BA6745",
"v. c #B76847",
"b. c #BC6846",
"n. c #B36648",
"m. c #B46B4D",
"M. c #BC6C4B",
"N. c #BE704E",
"B. c #A26C54",
"V. c #AB6E53",
"C. c #B16E50",
"Z. c #B96E50",
"A. c #AA7157",
"S. c #A97258",
"D. c #A0755F",
"F. c #B47254",
"G. c #BE7252",
"H. c #BF7857",
"J. c #BC7758",
"K. c #B4785B",
"L. c #BD795A",
"P. c #B17559",
"I. c #8C7268",
"U. c #AE7C63",
"Y. c #A17460",
"T. c #B57D61",
"R. c #C06744",
"E. c #C26A46",
"W. c #C26E4B",
"Q. c #C86F4A",
"!. c #C4714E",
"~. c #CA734E",
"^. c #D3764F",
"/. c #D6784F",
"(. c #C47351",
"). c #CB7550",
"_. c #CC7954",
"`. c #CA7D5B",
"'. c #C0795A",
"]. c #D37750",
"[. c #D57951",
"{. c #D37E58",
"}. c #CC805F",
"|. c #D4825C",
" X c #D9835B",
".X c #CC8565",
"XX c #CF8868",
"oX c #C58869",
"OX c #D38966",
"+X c #DB8D69",
"@X c #AB978E",
"#X c #BAA79E",
"$X c #CD9B85",
"%X c #C1ADA5",
"&X c #E4E1DF",
/* pixels */
"` ` E X 3 E 7 7 0 ` ` w X E 4 * * * 4 7 E 9 X 4 7 E E E ) ` { > @ W 7 7 7 7 7 W $ ; | ) 7 7 7 * * E @ > / 0 ) ) 7 0 7 / > - / 7 ",
"` ` E X 3 E 7 7 7 7 E 3 X ` 7 * * * * * * & X 4 7 7 7 7 7 7 W $ @ W 7 7 7 7 7 W $ ; | 7 7 7 * * * E @ > W 7 0 0 0 0 7 W > - W 7 ",
"` ` E X 3 E 7 E E E E 3 X E 7 # # # # * # & X 7 E E E E E E W $ @ W 7 E E E 7 W $ ; | E E E * * * I + > { E E E E E E / > @ W 7 ",
"X X X . X X X X X X X X . X X X X X X X X X   X X X X X X X X . . X X X X X X X . . + X X X X X X X . . X X X X X X X + . . X X ",
"3 3 3 3 3 3 O X & 3 3 3 9 3 3 0 + @ w 3 3 3 9 3 3 & X < 0 3 3 3 3 3 4 @ + 9 3 t y y t t 9 + O 3 3 3 3 3 3 3 9 X 1 w 3 3 3 3 3 3 ",
"` ^ E E ` E % + P E E E E ^ ^ { @ > { ^ ^ ^ ^ ^ E U o 1 [ E E E E E W > @ { } X.X.X.X.X.{ @ > { E E E E ` ` E X w / 7 7 7 7 7 7 ",
"/ ^ ^ ^ ^ I % + U E E E ^ / ^ { @ , { ^ / / / / E U + 1 { E E E E E { > @ { | X.X.o.o.X.{ @ > { ^ / ^ / ^ ^ I X 3 E 7 7 7 7 7 7 ",
"+ X X X X X .   + + + X X X X + . . + + + + X X X + . . + X X X X X + . . + + + + + + + + . . + X X X X X X X   X X X X X X X X ",
"3 1 1 . $ 1 1 & % 3 3 > . 3 1 % % % % 3 3 > . % 1 3 3 3 3 r 3 @ X 3 1 3 3 1 1 3 + X & % 1 3 % % % & X @ 3 3 3 3 3 3 3 3 @ X 3 r ",
"E E I + 3 W E E E E W 3 + | ^ # * * : : I 4 X 7 W / / / / / { $ @ { E W E W E { > O U E W E E E 7 U @ 1 { W W ^ / / E { > O { ` ",
"4 4 4 X 1 7 4 4 4 4 7 % X 0 4 & * * & & * & X 4 7 0 ` 0 0 0 ^ O + ^ 9 7 7 7 7 E ; o 7 4 7 7 4 & & : + > E 7 0 0 0 0 0 ^ > + / 0 ",
"X X X . X X X . X X X X . X X X . . X X X X . X X X . . X X X X . X X X . X X X . . X X + . X X X X . . X X X . X X X X X . X X ",
" . . . . .} 1 X 7  . . . . . .O.; < O. . . . . . .7 + 2 o. . . .} _ | < - }  . .o.o. . .O.; < O. . . . . . .7 X u  .w w 0 0 w w ",
"O.o.O.o.O.| 3 + W O.O.O.O.O.O.%.< r @.O.@.@.O.@.O.U @ u @.O.O.o.| | +.1 ; +.| o.X.| o.o.+.; < @.O.O.O.O.O.O.W + i | ^ ^ ^ ^ ^ ^ ",
"r r r t u 3 O . 3 r r r t u u i - < i u u r t u r 3 X x #.i  .#.#.i #.< X i r r r u r r 3 X ; i r u t u u r 1 . > 3 > > 1 1 1 1 ",
"- - -   = - - - - ; ; d   + + - - + - f f -   - ; f f x x h x d p x x x x x x x = s x ; - ; ; - - ; . . ; - - - - - - - . . ; - ",
"O.O.| +  .@.O.o.O.%.%. .- &.o.| | | | O.%.$.X | *.7.=.7.7.7.8.b c 8.7.7.7.7.7.=.u Z Z.%.+.+.@.@.%.&.; u &.@.@.@.@.%.@.&.r ; +.} ",
"| } | + i @.O.O.O.O.@. .- =.*.%.*.7.7.7.h.7.v h.M.(.!.!.!.!.~.:.D ).!.!.!.!.!.W.:.e.OXG.b.h.7.7.2.&.@ u %.%.@.O.O.%.O.%.r ; { ^ ",
"i t w X r  . . . .i o.-.d 2.2.2.7.2.2.2.2.5.k m.m.m.m.m.m.m.M.A Z M.m.m.m.m.m.M.C L oXz.z.m.z.k.j.g.; c o. . . . . . .o.< - 0 3 ",
"- - - = - - X = f f v N M x v N j g M M M v v N v x d l N v x v v x m k j m N B M F G M v g g x x m v v v f f . X - - - - = - - ",
"%.%.%.%.%.+.1 x x.!.!.!.!.!.!.|.L a.{.(.(.(.(.(.!.b.c f.{.!.!.!.!.!.~.q.A ~.G.L.L.H.H.H.M.b :.W.!.!.!.!.!.!.x.f -.%.O.O.O.@.O.$.",
"%.%.%.%.%.*.-.x x.!.!.!.!.!.W.`.L a.{.(.(.(.(.(.N.c.c f._.M.!.!.!.!.~.3.A ~.n.h.h.h.h.h.x.V <.).!.!.!.!.!.N.x.x U.k.o.O.O.O.O.O.",
"%.%.%.7.m.M.;.m M.!.!.!.!.!.!._.K q._.(.(.!.(.(.N.c.c a._.!.!.!.!.N.~.q.Z ~.n.h.n.n.k.h.M.A <.).!.(.!.!.!.!.x.v w.n.7.%.O.%.O.O.",
"d f f h M v g g N M M M k v v x g d x N N M h M x x g k N M M M v x x h h x v v h h v h x h h N v n v v x x x d h v v v d = - d ",
"2.V.z.f 1.k.k.k.k.F.F.B.h k.g.7.g.g.j.z.z.j.h 2.k.m.M.m.F.F.H.D Z !.m.m.M.m.m.N.,.c h.m.m.m.Z.C.V.M.m <.M.m.m.M.M.m.m.M.<.c 2.$.",
"M.N.x.x j.M.n.n.M.M.M.j.N !.M.x.x.x.x.x.x.g.v 8.M.!.!.(.!.!.~.>.D ~.!.!.!.!.!.~.9.V c.M.(.!.(.(.(.!.Z w.~.!.!.!.!.!.!.~.q.A W.2.",
"(.G.M.x j.M.M.M.M.M.M.k.v M.n.x.x.x.x.x.x.g.v !.!.!.(.).(.(.].:.D ^.!.!.!.!.!.~.<.V c.M.(.(.(.(.(.~.Z w.].(.(.(.!.!.!.^.q.Z ).(.",
"M M x a h N M v x x x v p v v v h v v v x v a n x m M M m N N g g m x v M m N B k d n N N x M N N N d h N N N M N N N N k j B N ",
"z.z.z.m.z.C.r.f 7.z.z.z.m.z.z.L.J ,.M.z.z.m.m.z.k.h.x t.F.k.z.z.z.z.m.,.N m.B.S.A.A.A.S.C.m e.L.z.z.m.m.z.z.k.h p.A.A.A.A.A.A.A.",
"(.!.!.!.!.b.;.Z ).(.!.!.!.(.W.OXt.3.~.!.(.(.!.(.!.c.b f.{.!.!.!.!.!.~.q.A _.n.x.x.n.x.h.b.D 3.^.!.!.!.!.!.!.x.x 2.x.h.x.x.x.x.x.",
").).).~.).W.;.Z [.).).).).).~. Xe.d.[.~.).).).).!.E.Z a.[.!.~.~.~.~./.q.D [.M.x.n.v.v.x.Q.D 3.[.).).).).).~.c.x 2.M.v.v.v.v.v.n.",
"Z Z Z Z Z m h a c Z Z Z Z N N Z d l S Z Z Z Z Z m c d h Z N N Z Z N Z h d Z c c c x c c N d k Z N N Z Z N N c p h c c c x c c c ",
"B.B.0.d :.w.0.w.w.s.B.p.d 1.1.1.1.5.1.w.w.q.d 5.1.j.j.j.s.s.A.S x z.w.j.j.w.w.k.Z G U.w.0.j.2.>.>.2.v A j.w.j.j.j.j.j.z.A v V.B.",
"(.(.M.x j.W.M.M.M.M.W.k.N ~.M.x.x.x.x.x.x.h.v h.M.~.!.!.!.!.^.<.,.^.!.!.!.~.!.^.<.t.OX(.!.!.x.x.x.M.S 0.^.!.!.!.!.!.!.^.w.Z ~.(.",
").).W.x k.!.W.W.!.W.!.z.N !.M.c.n.M.v.c.b.h.v W.~.~.~.).).~.[.3.,./.~.~.~.~.~.[.3.t.+X_.~.~.M.x.x.W.D w./.~.~.).).).).[.w.Z ^.).",
"A Z Z s c V Z Z Z Z Z m p b c m Z c c c c c p A Z Z A A Z Z D h g D Z A A Z A D h k e.Z Z A V c c Z j v D Z A A A A A D h d A Z ",
"q.q.q.w.0.s.u.k w.q.q.q.w.q.q.0.h Z w.q.q.w.w.q.3.1.f J s.q.q.0.0.q.w.Z v w.q.a.s.s.a.a.3.h x 1.q.q.0.0.q.q.0.g e.s.a.a.a.s.a.a.",
").).).).).).w.Z ^.!.~.~.~.~.).~.V w.[.).).).).~.!.E.b D.{.!.~.!.!.!.^.w.D ^.`..X.X.X.X.X(.V 3.^.!.~.!.~.~.!.b.x T._.v.M.n.n.M.M.",
").).).~.).W.5.Z [.~.~.~.~.~.).~.C w./.).).).).).~.E.V s.[.~.~.~.~.~./.0.D /..XXX.X.X.XXX).C q./.~.~.).).).~.b.x V.W.x.x.x.x.c.c.",
":.:.,.<.:.C x j <.,.,.:.>.,.,.:.d x :.:.:.,.<.:.D C g v :.,.,.:.:.,.:.x g >.e.e.y.i.t.e.,.h v >.,.,.:.:.,.D C p c C V V C C V V ",
"r.r.:.a Z :.:.>.:.r.r.L p :.C C :.:.,.r.r.6.a C :.<.q.<.9.r.a.B v q.<.<.3.<.<.3.N f -.:.<.3.:.C C :.g N 3.<.<.q.<.<.<.q.N h a.r.",
").).W.c k.!.M.M.W.!.!.z.N ~.M.x.x.x.v.n.b.n.v h.M.~.~.~.~.~.[.a.,./.~.~.~.~.~./.q.V b.!.~.!.M.v.x.W.D w.].).).).).).)./.w.A [._.",
").).W.x k.!.M.M.W.W.!.k.m !.M.x.x.x.x.x.c.h.x M.!.~.~.~.~.~.[.q.,.[.~.~.~.~.~./.q.C b.!.~.~.M.c.v.W.S w.[.).).).).).).[.w.Z [.).",
",.,.:.a V :.,.>.,.:.:.Z s C C C C C C C C Z a :.:.,.<.>.:.:.<.M k <.:.<.<.:.:.<.x d -.:.:.<.:.C C :.g N <.:.<.<.>.:.:.<.N g <.<.",
":.:.:.<.<.:.x a :.:.:.<.<.:.:.p.z N <.,.,.<.<.:.,.:.d G r.:.:.>.<.,.>.N k >.,.i.y.r.y.t.<.v x :.:.:.<.>.:.:.:.d L i.6.,.,.<.,.,.",
").).).~.~.W.1.x b.).).).~.~.~. Xt.w.[.).).).).~.~.E.b D.|.!.~.~.~.~./.0.D /.M.M.M.M.M.M.~.:.<.^.~.~.~.~.~.~.b.x K.}.M.M.M.M.M.M.",
").).).~.).W.1.Z ~.~.).).~.~.~. Xe.w.[.).).).).).!.b.V f.{.!.~.~.~.~.^.q.D ^.v.x.x.x.x.x.~.:.<.[.).).~.~.~.!.c.c 2.c.x.x.x.x.x.x.",
"q.q.q.w.q.>.c k w.3.3.q.w.q.q.w.M J d.3.q.q.w.q.<.;.h Z 0.3.<.q.q.<.0.Z h q.:.:.:.;.:.:.3.M N 0.3.3.q.q.3.<.;.a Z :.:.:.:.;.:.:.",
"K K ,.a N ,.D D D L e.J a V Z Z V V V D D S p b C D ,.D D L e.M k ,.D ,.,.D D :.v d C A D ,.,.K K 6.j v ,.D D ,.D D D ,.v h ,.A ",
"M.M.~.Z m.).!.!.!.(.).m.N ~.M.x.x.x.c.M.M.n.x x.M.).).).)._.[.<.,./.~.~.~.~.~./.q.C b.!.~.~.`.}.}.{.Z w./.~.~.~.~.~.~./.w.D W.v.",
"x.x.~.N z.).!.!.!.!.~.z.N !.M.x.x.x.x.x.x.h.x v.W.~.~.).).).].>.,./.!.!.!.~.!.^.q.C b.W.~.!.`.`.`.{.Z w.^.!.~.!.~.~.!.^.q.D E.x.",
";.:.q.j :.0.3.w.q.q.q.:.d >.;.;.>.>.;.;.;.:.a q.0.q.w.0.q.q.w.m v w.3.0.w.q.q.w.m f 1.1.q.0.s.a.a.s.h Z w.q.q.w.w.q.q.w.Z v 1.:.",
"A A A A A K G d D A A A A A Z ,.l v D A A A A A Z V d H D Z Z A A Z D v j D S L L L L K Z g g b Z Z A A Z Z D a N K K K K K L K ",
"~.~.~.~.~. XU.Z [.).).).~.~.~. Xt.0.[.~.~.~.~.~.~.E.b Y. X~.~.~.~.~./.0.D /.!.(.(.(.(.(.W.b <.~.~.~.~.~.~.~.W.c K._.M.(.G.G.(.G.",
").~.~.!.~.W.1.Z ].!.).).(.).!.|.e.w.].!.).).!.~.!.b.V f.{.!.~.!.!.!.^.q.D ].M.M.M.M.M.M.b.V q.[.(.).!.!.~.!.b.c P.!.x.x.x.x.x.x.",
"w.w.w.j.w.0.V h w.w.w.w.j.j.w.V.N K V.w.w.w.j.w.0.2.x D l.w.w.j.j.0.j.Z x l.3.3.4.0.3.<.0.x Z z.w.w.j.j.w.0.1.d C 1.>.>.1.1.>.>.",
"J J Z a x Z Z m N J J B a c c c c c N S S Z a c m Z Z Z S J K l g Z Z Z Z Z Z Z h d Z Z Z Z Z N N Z j h A Z Z Z Z Z Z Z v j S S ",
"_._.W.x k.W.M.W.W.(.).m.N ~.M.x.x.x.v.M.M.n.v x.W.~.~.~.).).[.3.,./.~.~.~.~.~./.q.C R.!.~.~.!.!.M.].6.0./.~.~.~.).).~.].w.D ~.M.",
"(.(.M.x j.W.M.M.M.M.W.k.N ~.M.x.x.x.x.x.x.h.x x.W.!.!.!.!.!.~.;.,.^.!.!.!.!.!.^.q.C c.W.!.!.M.M.M.).K 0.^.!.!.!.!.!.!.~.q.A W.v.",
"z.z.j.g >.j.j.j.j.w.j.<.g 0.2.1.2.2.1.1.2.>.g j.k.k.z.k.j.j.z.V m m.j.k.z.j.j.z.C x 2.g.k.z.j.j.w.z.N ,.z.j.j.z.k.j.j.J.%XI.g.4.",
"N N N m m c h a c N N N N m N c d h N N N m m N m c d l Z m N m m m N h d Z B J G G G G N g g x N N N N N N N a M S N @X&X#XN N ",
"~.~.~.~.~.E.5.c b.~.~.~.~.~.~.W.V w./.~.~.~.~.~.!.E.b f.|.!.~.~.~.~.^.q.D [.!.(.(.(.(.H.~.,.>.Q.!.~.~.~.~.!.W.x j.!.N.M.$XZ.M.M.",
"!.!.!.!.!.W.3.x x.!.!.!.!.!.!.M.b q.~.!.!.!.!.!.M.c.b f._.M.!.!.!.M.~.3.A _.n.h.h.h.h.h.E.D <.~.!.!.!.!.!.M.x.v 2.x.h.h.h.h.k.k.",
"!.!.!.!.!._.B.c W.!.!.!.!.!.!.Q.V a._.!.!.!.!.!.M.c.b q.).!.!.!.!.!.~.3.A ).n.n.n.n.n.h.!.,.<.~.!.!.!.!.!.!.x.v 2.x.n.n.n.n.n.n."
};
