/* XPM */
static const char *P_E[] = {
/* columns rows colors chars-per-pixel */
"64 64 214 2 ",
"   c #0F1218",
".  c #13151C",
"X  c #1B1216",
"o  c #0D0C13",
"O  c #28171C",
"+  c #34131B",
"@  c #3D261C",
"#  c #191D24",
"$  c #151C25",
"%  c #311D27",
"&  c #1D222B",
"*  c #1D2025",
"=  c #1D2A36",
"-  c #27272D",
";  c #392928",
":  c #3B332E",
">  c #252A33",
",  c #242B39",
"<  c #2A2E3A",
"1  c #2E2831",
"2  c #332F3B",
"3  c #3C2A36",
"4  c #26313D",
"5  c #2B323C",
"6  c #3B3C3D",
"7  c #373337",
"8  c #4B0C14",
"9  c #40281D",
"0  c #4D1A22",
"q  c #661C23",
"w  c #791B28",
"e  c #442E22",
"r  c #4A232A",
"t  c #463125",
"y  c #4D3426",
"u  c #4D3528",
"i  c #4E382A",
"p  c #513527",
"a  c #51362A",
"s  c #533A2B",
"d  c #472A33",
"f  c #493536",
"g  c #543D31",
"h  c #58252F",
"j  c #76242C",
"k  c #722E34",
"l  c #670F1A",
"z  c #4C443F",
"x  c #5A4235",
"c  c #5E4639",
"v  c #55463D",
"b  c #614739",
"n  c #624A3B",
"m  c #654A3B",
"M  c #243443",
"N  c #2D3543",
"B  c #2E3A46",
"V  c #2E3B4B",
"C  c #353A45",
"Z  c #323C4C",
"A  c #3A3946",
"S  c #363E51",
"D  c #4B3744",
"F  c #3B424D",
"G  c #36404E",
"H  c #354253",
"J  c #3A4453",
"K  c #3B4B5A",
"L  c #3A4855",
"P  c #3F505C",
"I  c #424344",
"U  c #4D4642",
"Y  c #44484B",
"T  c #494848",
"R  c #514A46",
"E  c #5C4B41",
"W  c #564A49",
"Q  c #5C534D",
"!  c #484A52",
"~  c #4E5256",
"^  c #565656",
"/  c #595756",
"(  c #575857",
")  c #585857",
"_  c #545559",
"`  c #585758",
"'  c #575858",
"]  c #595959",
"[  c #4F504F",
"{  c #614E42",
"}  c #694943",
"|  c #645145",
" . c #6B5244",
".. c #63544C",
"X. c #68564A",
"o. c #605751",
"O. c #635A54",
"+. c #655E59",
"@. c #785757",
"#. c #5E605F",
"$. c #6B635C",
"%. c #64605E",
"&. c #72665D",
"*. c #75685E",
"=. c #786559",
"-. c #495B67",
";. c #5C5E60",
":. c #5F6262",
">. c #516471",
",. c #646464",
"<. c #6A6664",
"1. c #6C6C6C",
"2. c #6A6867",
"3. c #756B63",
"4. c #716F6C",
"5. c #796C61",
"6. c #76726C",
"7. c #747474",
"8. c #797775",
"9. c #7C7976",
"0. c #7C7C7B",
"q. c #777778",
"w. c #716F70",
"e. c #832934",
"r. c #97755E",
"t. c #856B5B",
"y. c #827368",
"u. c #957A66",
"i. c #817F7C",
"p. c #857C75",
"a. c #A27D66",
"s. c #7F817E",
"d. c #9C826D",
"f. c #84827E",
"g. c #89847F",
"h. c #8E887F",
"j. c #988677",
"k. c #A38B75",
"l. c #A58C78",
"z. c #AB927E",
"x. c #A6907E",
"c. c #A58169",
"v. c #7E7F80",
"b. c #607380",
"n. c #7E8080",
"m. c #828281",
"M. c #8B8681",
"N. c #8E8983",
"B. c #888A8C",
"V. c #938C84",
"C. c #988F86",
"Z. c #978F89",
"A. c #969086",
"S. c #999187",
"D. c #9C9389",
"F. c #9A948C",
"G. c #999A9A",
"H. c #8B8D90",
"J. c #AC9582",
"K. c #A2968B",
"L. c #A29A8E",
"P. c #AB9786",
"I. c #B19B86",
"U. c #B39D8A",
"Y. c #A59C91",
"T. c #B6A18D",
"R. c #B5A393",
"E. c #BAA593",
"W. c #BDA996",
"Q. c #BDAB99",
"!. c #B5B1AC",
"~. c #CBA48A",
"^. c #C0AB97",
"/. c #C1AD9A",
"(. c #C4B19E",
"). c #C8B29F",
"_. c #D4AC91",
"`. c #E3B596",
"'. c #C6B4A2",
"]. c #C8B6A2",
"[. c #CBB9A6",
"{. c #CCBDAC",
"}. c #C6B9A9",
"|. c #D1BFAB",
" X c #CBBFB2",
".X c #D2C1AE",
"XX c #CEC1B2",
"oX c #D3C4B3",
"OX c #D9CAB6",
"+X c #DBCDBB",
"@X c #D5C9B8",
"#X c #DFD1BE",
"$X c #E0D3BF",
"%X c #F7C9A8",
"&X c #D0CDC9",
"*X c #E3D5C4",
"=X c #E6D8C7",
"-X c #E6DACA",
";X c #E9DDCC",
":X c #E8DAC6",
">X c #EDE1CF",
",X c #EEE2D2",
"<X c #F2E6D5",
"1X c #F4E8D7",
"2X c #F2E7D8",
"3X c #F5EADA",
"4X c #F9EEDE",
"5X c #FBF0DF",
"6X c #F9EFE0",
"7X c #FDF4E3",
"8X c #FFF8E7",
"9X c #FFFBEB",
"0X c #FBF4E4",
"qX c #FFFFF5",
/* pixels */
"^ ^ ^ ^ ^ ^ ^ ^ ^ ^ ^ ^ ^ ^ ^ ^ ^ ^ ^ ^ ^ ^ ^ ^ ^ ^ ^ ^ ^ ^ ^ ^ ^ ^ ^ ^ ^ ^ ^ ^ ^ ^ ^ ^ ^ ^ ( ^ ^ ' ^ ^ ^ ^ ^ ^ ^ ^ ^ ^ ^ ^ ^ ^ ",
"^ ^ ^ ^ ^ ^ ^ ^ ^ ^ ^ ^ ^ ^ ^ ^ ^ ^ ^ ^ ^ ^ ^ ^ ^ ^ ^ ^ ^ ^ ^ ^ ^ ^ ^ ^ ^ ^ ^ ^ ^ ^ ^ ^ ^ ^ ^ ^ ^ ) ' ^ ^ ^ ) ^ ^ ^ ^ ^ ^ ^ ^ ^ ",
"^ ^ ^ ^ ^ ^ ^ ^ ^ ^ ^ ^ ^ ^ ^ ^ ^ ^ ^ ^ ^ ^ ^ ^ ^ ^ ^ ^ ^ ^ ^ ^ ^ ^ ^ ^ ^ ^ ^ ^ ^ ^ ^ ^ ^ ^ ^ ^ ) ) ) ` ` ^ ^ ` ` ) ) ^ ^ ^ ^ ^ ",
"^ ^ ^ ^ ^ ^ ^ ^ ^ ^ ^ ^ ^ ^ ^ ^ ^ ^ ^ ^ ^ ^ ^ ^ ^ ^ ^ ^ ^ ^ ^ ^ ^ ^ ^ ^ ^ ^ ) ^ ^ ^ ^ ^ ^ ^ ^ ) ) ) ) ) ) ) ` ) ) ) ) ^ ^ ^ ^ ^ ",
"^ ^ ^ ^ ^ ^ ^ ^ ^ ^ ^ ^ ^ ^ ^ ^ ^ ^ ^ ^ ^ ^ ^ ^ ^ ^ ^ ^ ^ ^ ^ ^ ^ ^ ^ ` ) ^ ^ ^ ^ ^ ^ ^ ^ ^ ^ ^ ) ) ) ) ) ) ) ) ) ) ) ) ( ^ ^ ^ ",
"^ ^ ^ ^ ^ ^ ^ ^ ^ ^ ^ ^ ^ ) ( ^ ^ ^ ^ ^ ^ ^ ^ ^ ^ ^ ^ ^ ^ ^ ^ ^ ^ ^ ^ ^ ) ^ ^ ^ ^ ^ ^ ^ ^ ^ ^ ^ ^ ^ ( ( ) ) ) ) ) ) ) ) ) ^ ^ ^ ",
"^ ^ ^ ^ ^ ^ ^ ^ ^ ^ ^ ^ ^ ^ ` ^ ^ ^ ^ ^ ^ ^ ^ ^ ^ ^ ^ ^ ^ ^ ^ ^ ^ ^ ) ) ^ ^ ^ ^ ^ ^ ^ ^ ^ ^ ^ ^ ^ ^ ^ ^ ^ ) ) ) ) ) ) ) ^ ^ ^ ^ ",
"^ ^ ^ ^ ^ ^ ^ ^ ^ ^ ^ ^ ^ ` ` ^ ^ ^ ^ ^ ^ ^ ^ ^ ^ ^ ^ ^ ^ ^ ^ ^ ^ ) ) ) ) ) ^ ^ ^ ^ ^ ^ ^ ^ ^ ^ ^ ^ ^ ^ ^ ) ) ` ) ) ) ^ ^ ^ ^ ^ ",
"^ ^ ^ ^ ^ ^ ^ ^ ^ ^ ^ ^ ^ ^ ) ) ^ ^ ^ ^ ^ ^ ^ ^ ^ ^ ^ ^ ^ ^ ^ ^ ^ ) ) ) ) ^ ^ ^ ^ ^ ^ ^ ^ ^ ^ ^ ^ ^ ^ ^ ^ ^ ^ ) ) ) ) ) ^ ^ ^ ^ ",
"^ ^ ^ ^ ^ ^ ^ ^ ^ ^ ^ ^ ^ ^ ( ^ ^ ^ ^ ^ ^ ^ ^ ^ ^ ^ ^ ^ ^ ^ ^ ^ ^ ( ^ ) ^ ^ ^ ^ ^ ^ ^ ^ ^ ^ ^ ^ ^ ^ ^ ^ ^ ^ ^ ^ ^ ) ^ ^ ^ ^ ^ ^ ",
"^ ^ ^ ^ ^ ^ ^ ^ ^ ^ ^ ^ ^ ^ ^ ^ ^ ^ ^ ^ ^ ^ ^ ^ ^ ^ ^ ^ ^ ^ ^ ^ ^ ) ) ) ^ ^ ^ ^ ^ ^ ^ ^ ^ ^ ^ ^ ^ ^ ^ ^ ^ ^ ^ ^ ^ ^ ^ ( ^ ^ ^ ^ ",
"^ ^ ^ ^ ^ ^ ^ ^ ^ ^ ^ ^ ^ ^ ^ ^ ^ ^ ^ ^ ^ ^ ^ ^ ^ ^ ^ ^ ^ ^ ^ ^ ^ ^ ) ^ ^ ^ ^ ^ ^ ^ ^ ^ ^ ^ ` ` ^ ^ ^ ^ ^ ^ ^ ^ ^ ^ ^ ^ ^ ^ ^ ^ ",
"^ ^ ^ ^ ^ ^ ^ ^ ^ ^ ^ ^ ^ ^ ^ ^ ^ ^ ^ ^ ^ ^ ^ ^ ^ ^ ^ ^ ^ ^ ^ ^ ^ ^ ^ ^ ) ^ ^ ^ ^ ^ ^ ^ ^ ^ ` ) ^ ^ ^ ^ ^ ^ ^ ^ ^ ^ ^ ^ ^ ^ ^ ^ ",
"^ ^ ^ ^ ^ ^ ^ ^ ^ ^ ^ ^ ^ ^ ^ ^ ^ ^ ^ ^ ^ ^ ^ ^ ^ ^ ^ ^ ^ ^ ^ ^ ^ ^ ^ ^ ^ ^ ^ ^ ^ ^ ^ ^ ^ ^ ) ) ^ ^ ^ ^ ^ ^ ^ ( ^ ^ ^ ^ ^ ^ ^ ^ ",
"^ ^ ^ ^ ^ ^ ^ ^ ^ ^ ^ ^ ^ ^ ^ ^ ^ ^ ^ ^ ^ ^ ^ ^ ^ ) ,.,.,.,.,.,.,.,.2.2.,.,.,.,.,.,.,.) ^ ) ( ( ^ ^ ^ ^ ^ ^ ^ ) ^ ^ ^ ^ ^ ` ^ ^ ",
"^ ^ ^ ^ ^ ^ ^ ^ ^ ^ ^ ^ ^ ^ ^ ^ ^ ^ ^ ^ ^ ) ] ] ] ,.2.7.q.7.q.q.q.q.q.q.q.q.7.1.1.1.1.] ) ) ) ^ ^ ^ ^ ^ ^ ^ ^ ^ ^ ^ ^ ( ) ` ^ ^ ",
"^ ^ ^ ^ ^ ` ^ ^ ' ` ` ) ' ) ) ] ] :.2.1.1.7.q.q.q.q.q.q.0.0.0.0.0.0.0.0.0.0.q.q.q.q.q.7.1.4.1.1.1.,.,.] ) ) ) ^ ) ) ^ ` ) ^ ) ^ ",
"^ ^ ^ ^ [ U U R R R R R R W Q Q Q o.+.+.+.+.+.+.+.o.<.f.0.0.m.0.0.0.0.0.0.0.0.0.0.0.0.0.q.q.q.q.q.q.q.q.7.1.,.] ) ^ ^ ^ ^ ^ ^ ^ ",
"^ ^ ^ ^ U t t t t u i a a a a s s a u u s u t e t e v N.M.f.f.f.s.0.0.0.0.0.0.0.0.0.0.q.q.q.q.q.0.q.0.0.q.q.q.7.2.,.) ^ ^ ^ ^ ^ ",
"^ ^ ^ ' R e K.@X{.@XP.Q.@XXXoXP.}.oXXXoXJ.{.XXXX Xc E N.M.M.M.M.m.f.0.0.0.0.0.0.0.0.q.q.q.0.0.0.0.0.0.0.0.0.q.q.q.q.1.) ^ ^ ( ^ ",
"^ ^ ^ ' R e }.qX7X9X[.;X9X7X9X(.2X9X7X9XE.4X7X7X7X{ E Z.M.M.M.M.M.m.f.0.0.0.0.0.q.0.m.i.0.0.q.0.0.0.0.0.0.0.0.0.q.q.q.7.,.] ( ) ",
"^ ^ ^ ) W y '.7X2X7X(.*X7X3X7XW.;X6X3X4XR.,X3X3X2X| E Z.V.V.N.M.M.f.f.f.0.0.0.0.i.7.;.] ;.q.0.q.0.0.0.q.0.0.0.0.0.q.q.0.q.7.,.) ",
"^ ^ ) 2.O.u }.7X3X7X(.*X7X3X7XQ.,X7X4X7XR.2X4X4X3X .E F.V.V.V.M.M.M.M.f.0.0.0.m.,.L P P K Y 1.0.0.0.q.q.0.0.0.0.0.0.0.0.q.q.q.2.",
"^ ) 2.9.$.u }.9X3X5X'.=X7X4X8XQ.,X7X7X7XE.3X7X7X4X .{ F.A.A.V.V.N.f.M.f.f.0.0.7.-.>.-.-.-.-._ q.0.0.0.q.q.0.0.0.0.0.0.0.0.0.q.q.",
"%.4.9.f.$.u '.1X+X*X^.+X3X,X3XE.=X2X,X2XU.;X,X,X;X .| F.A.C.V.V.N.M.M.M.f.0.m.;.>.>.C L F b.-.1.0.0.0.q.0.q.0.0.0.0.0.0.0.0.q.q.",
"7.i.i.M.&.s J.E.z.U.d.J.(./.(.l.E./././.d.W.Q.Q.Q. .| F.C.S.C.V.V.M.M.M.M.m.i.:.L 5 B.&X:.B J w.0.0.0.q.0.q.0.0.0.0.0.0.0.0.q.0.",
"i.i.f.N.&.p oX4X+X#XJ.oX7X7X9X(.2X9X7X7XQ.4X7X7X6X .| L.S.S.S.V.V.N.M.M.9.o.0.:.Z 1 Q P.: 6 5 7.m.0.0.q.0.0.0.0.0.0.0.0.0.0.q.q.",
"f.f.g.V.*.p {.>X+XOXz.(.;X4X7X^.,X7X4X7XR.2X4X4X3X .| L.S.S.S.V.V.N.N.V.3.W 1.] $ U c.`.t.6 $ 7.f.0.0.0.0.0.0.0.0.0.0.0.0.0.0.0.",
"f.g.h.V.5.p XX5XOXOXJ.(.oX+X7X/.,X7X4X7XE.3X4X7X3X .| Y.D.S.S.A.V.V.N.N.g.,.] ] o u.%X~.%Xz X q.0.0.0.0.0.0.0.0.0.0.0.0.0.q.0.0.",
"f.g.M.V.5.p {.8X$XoXz.(.oX[.*X^.,X7X4X4XR.2X4X4X2X .{ Y.D.D.D.S.V.V.V.N.V.2.;.I % ; ~.~.a.X 3 ,.m.0.0.0.0.0.0.0.0.0.0.0.0.0.0.0.",
"M.M.N.S.5.u XX9X1X#XJ.].OXoX@XT.4X9X7X9XE.4X7X7X6X{ | Y.K.K.D.S.C.V.V.V.N.g.,.Y 4 F U E A Z 4 4.m.q.0.0.0.0.q.0.0.0.0.0.0.0.0.0.",
"M.M.V.S.5.a l.(./.U.r.k.J.z.J.u./.]././.k.Q././.Q.n X.Y.D.D.D.D.S.V.V.V.M.V.4.; & Z A d L N * ! q.0.0.0.0.0.q.q.0.0.0.0.q.q.q.q.",
"M.N.V.D.5.p (.<X:X$Xk.E.[.).[.d.[.$X'.).z.:X;X;X=X .| L.D.D.D.D.S.A.V.V.N.N.:.: : M 7 d = N H Z _ 0.0.0.0.0.0.0.0.q.q.0.0.q.q.0.",
"M.N.V.S.5.p oX9X5X5XU.'.OX.XOXz.[.oX.X.Xk.$X7X7X3X .| Y.D.D.K.D.S.V.V.V.N.p.J Z u B 2 d V J H J F 2.n.0.0.0.0.0.0.0.0.0.0.q.q.0.",
"M.V.V.S.5.p {.7X1X7XW./.oX|..Xl.[.oX{.#XE.,X4X4X,X .| Y.K.K.K.D.D.C.V.V.V.6.S , : f 2 f H J S N C ] m.q.0.0.0.0.0.0.0.0.q.q.0.0.",
"g.N.V.S.*.p {.7X1X7X(.].oX.X.Xl.[..X{.1XQ.3X4X7X7X .| Y.K.K.K.D.S.V.V.V.V.] Z # 4 f a D S J Z # Z _ 0.q.0.0.0.0.0.0.q.0.0.0.0.0.",
"M.M.V.S.*.u oX9X5X9X).:X;XOXOXz.{.@X,X9XE.6X9X,XQ. .| L.K.K.K.D.S.A.V.V.h.! Z * Z Z p ; M G Z # Z F 7.0.0.0.0.0.0.0.0.0.q.0.0.0.",
"M.M.h.C.*.u W.:XOXOXJ.[..XW./.k.T./.#X*XP.@X=Xj.9 x X.L.D.K.D.D.S.A.V.V.6.J Z * J V 2 p C V H * C Z ,.m.0.0.0.0.0.0.0.0.0.q.0.0.",
"M.h.h.S.&.a P.|.^.U.u.l.I.I.I.u.P.].'.].l.Q.[.u.y g X.Y.D.D.D.D.A.V.V.S.,.Z N * J Z 3 r i C B . 4 J ~ f.q.0.0.0.0.0.0.0.0.0.0.0.",
"M.M.V.S.&.p oX9X;X*XI.[.OX<X=Xx.*X9X9X9XQ.6XqXR.@ g X.Y.D.D.S.S.V.V.V.V.~ S , # B N W 3 - p 1 . > J Y q.0.q.0.0.0.q.0.0.q.0.0.0.",
"g.N.V.S.*.u {.7X,X+Xx.(.=X5X1XI.OX$X>X4XE.2X7X'.X.b X.Y.D.D.S.S.V.V.S.4.N J > . Z G O O 4 2 @ O # J B ) m.q.0.0.q.q.0.0.0.0.0.0.",
"M.N.h.V.&.u {.7X3X7XT.+X7X4X5XW.=X1X>X5XE.3X4X7X4X .| Y.D.D.S.S.V.V.V.f.T > . - , Z D D K > ^ : . * 6 1.0.q.0.0.0.q.q.q.q.0.0.0.",
"g.M.h.A.&.u .X9X4X9X].;X7X5X8X^.3X8X7X7XE.4X7X7X4X .| Y.D.D.S.S.A.V.V.Z.6.c.f = B = 3 d M & [ :.7 r.3.n.q.0.0.0.0.0.0.q.q.q.0.0.",
"f.g.M.V.&.u '.3X;X3XE.+X1X>X1XE.=X2X,X<XU.;X<X,X;X .| Y.D.D.S.S.V.V.V.M.6.`.{ ; A Z 1 1 H V > ] U _.p.7.0.q.0.q.q.q.0.q.0.q.0.0.",
"g.g.M.V.&.a x.(./.).d.I.(./.(.l.E./././.d.Q././.Q.m | L.D.S.S.C.V.V.N.M.8.y.r j j A N ; 4 J , Y ^ =.y.q.0.0.0.0.0.q.0.0.0.0.0.0.",
"g.M.M.V.&.u oX9X4X9X].;X9X7X9X(.3X9X7X7XQ.6X7X7X7X .{ L.S.D.S.V.V.V.M.M.f.g 0 q j d < h Z 4 H 4 [ ^ q.0.0.0.0.0.0.0.0.0.0.q.0.0.",
"f.M.M.V.&.u {.7X1X7X(.=X7X3X7X^.,X7X4X5XR.3X4X4X3X .| L.D.S.S.V.V.N.M.M.@.j q q q 1 2 0 Y M Z Z - ^ m.q.q.q.0.0.0.0.0.0.q.q.0.0.",
"i.f.g.V.&.u oX7X3X7X(.=X7X4X7X/.,X7X4X7XR.3X4X4X3X .E F.S.S.V.V.N.g.M.8.k 0 3 h d = D + D H 4 H Z > q.0.q.q.0.0.0.0.0.0.0.0.0.0.",
"i.f.f.N.$.u {.7X2X7X/.=X7X3X7XW.,X7X3X4XR.2X4X4X3X| E F.V.V.V.N.M.g.f.@.e.+ V H M J r O r L B Z H > 1.0.q.q.q.0.0.0.0.0.0.q.0.0.",
"0.i.i.M.$.u @X9X7X9X].;X9X7X9X(.3X9X7X9XW.7X8X8X7X| E Z.V.N.N.M.f.M.3.e.l d Y . , 2 f ^ f < < # # 2.q.q.q.q.0.0.0.0.0.0.0.q.q.0.",
"0.0.0.M.$.u J.{.(.[.l.E.[.].[.k./.[.].[.k.'.].].(.n E V.N.M.M.f.f.s.} w 8 +._ & #   1.m.0.6   > < 1.q.q.q.0.0.0.0.0.0.0.0.q.0.0.",
"0.0.0.m.$.y E.:X+X=XU.{.=X*X=XI.OX*X*X*XP.+X*X*X+Xn E V.g.g.M.f.f.f.<.d f q.C H S & ,.q.m.I = K B ' 0.q.q.0.0.0.0.0.0.0.q.q.q.q.",
"0.0.0.m.$.e XX9X4X9X'.;X9X7X9X/.2X9X7X7XE.4X7X7X7X| E V.g.g.g.f.i.i.m.n.0.q.! < Z > 4.0.0.^ > B 5 2.0.q.0.0.0.0.0.0.0.q.0.q.q.q.",
"0.0.0.n.+.e }.7X2X7X/.=X7X3X7XW.,X7X3X4XR.2X4X4X2X{ E N.g.f.f.i.0.0.q.q.q.0.7.q.0.2.m.q.q.0.] H.2.0.q.0.0.0.0.0.0.0.0.0.q.q.0.q.",
"0.0.0.n.+.e }.7X2X7X/.*X7X3X7XW.,X7X3X4XR.2X4X4X2X{ v M.f.f.0.0.0.q.q.q.q.0.2.!.G.1.0.q.q.0.,.&Xm.q.q.q.0.0.0.0.0.q.0.0.q.q.0.q.",
"0.0.0.v.+.@ {.9X3X8X(.=X7X4X7XW.2X7X7X7XR.3X7X7X3X{ v m.0.0.0.q.q.q.q.0.q.m.,.H.G.2.0.q.0.0.2.!.1.q.0.0.q.0.0.0.0.q.q.0.q.q.q.q.",
"0.0.0.v.+.; Q.3X;X3XR.@X2X;X2XT.*X,X,X,XU.;X,X,X;Xc v n.0.q.q.q.0.0.q.q.0.q.A B ~ ^ ] ] ] ,.) ! , _ 0.0.0.0.0.0.q.q.q.0.0.q.0.0.",
"0.0.0.m.+.e g x c x x c n b n x b b c b b c x x x t v 0.0.0.0.q.0.0.0.q.2.2 $ . * ^ ^ ^ ^ ^ T . $ # ^ q.0.0.0.0.q.q.q.q.q.q.q.0.",
"0.0.0.0.2.Q Q Q Q Q Q Q o.o.o.o.o.o.o.o.O.o...o./ Q %.0.0.0.0.0.0.0.0.0.7.^ 6 z ^ ^ ^ ^ ^ ^ ^ ^ 6 I ,.q.0.0.0.0.q.q.q.q.q.q.0.0.",
"q.0.0.0.q.0.0.0.0.n.n.0.0.0.0.0.0.0.0.0.n.0.0.m.n.n.0.q.0.0.0.0.0.0.0.0.0.f.0.0.7.1.1.1.1.1.q.q.0.m.0.0.0.0.0.0.q.q.q.0.G.0.q.0.",
"q.q.0.q.q.q.q.q.q.q.0.q.q.q.q.q.q.q.q.q.q.q.q.q.q.q.0.0.q.0.0.0.0.0.0.0.0.q.q.0.0.0.0.0.0.s.0.0.0.q.0.0.0.0.0.0.0.0.q.G.&XG.q.0.",
"q.q.q.q.0.0.0.q.q.q.q.0.0.q.q.q.q.0.q.q.q.q.0.0.0.0.q.0.0.0.0.0.0.0.0.0.0.q.q.q.q.q.0.q.0.0.0.0.0.0.0.0.0.0.0.q.q.q.q.0.G.m.0.0.",
"q.q.0.0.0.q.0.0.q.q.q.0.0.0.q.q.q.q.q.q.q.q.q.0.0.0.0.0.q.q.0.0.0.0.0.0.0.q.q.0.0.q.0.0.0.0.0.0.0.0.0.0.0.0.0.q.q.q.q.q.q.q.0.0.",
"0.q.q.0.0.0.0.0.q.q.0.0.0.0.0.q.q.q.0.q.q.q.0.0.0.0.0.q.q.q.0.0.0.0.0.0.0.0.q.q.0.q.0.0.0.0.0.0.q.q.0.0.0.0.0.0.0.q.q.0.q.q.0.0."
};
