/* XPM */
static const char *player[] = {
/* columns rows colors chars-per-pixel */
"64 64 234 2 ",
"   c #12141C",
".  c #131115",
"X  c #0D0E17",
"o  c #2A0B14",
"O  c #2A1B19",
"+  c #3D131F",
"@  c #3B221C",
"#  c #1A1B24",
"$  c #161C28",
"%  c #0C1523",
"&  c #351A27",
"*  c #231D21",
"=  c #1D222D",
"-  c #1F2127",
";  c #1C2532",
":  c #1E2739",
">  c #25252C",
",  c #372A29",
"<  c #242C3C",
"1  c #262A37",
"2  c #392834",
"3  c #26323D",
"4  c #3A3538",
"5  c #3C332D",
"6  c #4A0B18",
"7  c #49291A",
"8  c #5A1A26",
"9  c #4A1D2B",
"0  c #651B28",
"q  c #791B2A",
"w  c #482829",
"e  c #4A342D",
"r  c #5A3628",
"t  c #482738",
"y  c #572838",
"u  c #443C3C",
"i  c #4D3D3B",
"p  c #473835",
"a  c #523E3A",
"s  c #5A3E37",
"d  c #512F26",
"f  c #622329",
"g  c #673829",
"h  c #6C3E33",
"j  c #663D36",
"k  c #733F32",
"l  c #7B3F31",
"z  c #772831",
"x  c #601D1B",
"c  c #49413E",
"v  c #55423D",
"b  c #5C423C",
"n  c #7F402F",
"m  c #6D4135",
"M  c #63433A",
"N  c #6B453A",
"B  c #69453A",
"V  c #744235",
"C  c #7E4232",
"Z  c #7C4334",
"A  c #744639",
"S  c #75493A",
"D  c #7B4A3A",
"F  c #7C4737",
"G  c #252D44",
"H  c #253244",
"J  c #2B3343",
"K  c #2D3649",
"L  c #29384C",
"P  c #333A43",
"I  c #323B4C",
"U  c #373947",
"Y  c #2C3C53",
"T  c #343E52",
"R  c #3E2E40",
"E  c #1C2F41",
"W  c #583444",
"Q  c #4E384A",
"!  c #6A3946",
"~  c #3C424A",
"^  c #364156",
"/  c #394256",
"(  c #34445B",
")  c #3A455B",
"_  c #3B495B",
"`  c #2F4252",
"'  c #364C63",
"]  c #3E5567",
"[  c #4D4545",
"{  c #474548",
"}  c #524643",
"|  c #5A4641",
" . c #544945",
".. c #5B4B45",
"X. c #544B48",
"o. c #5B4D48",
"O. c #5D514D",
"+. c #424757",
"@. c #585058",
"#. c #644D45",
"$. c #6A4E44",
"%. c #624F49",
"&. c #614641",
"*. c #714F43",
"=. c #665047",
"-. c #6C5146",
";. c #655149",
":. c #6B5349",
">. c #6B584F",
",. c #735246",
"<. c #7C5445",
"1. c #735549",
"2. c #79574A",
"3. c #73584D",
"4. c #7B594B",
"5. c #6C5951",
"6. c #675854",
"7. c #735C52",
"8. c #7B5E52",
"9. c #5C605E",
"0. c #7D6155",
"q. c #7D6458",
"w. c #475A6C",
"e. c #475C70",
"r. c #585E66",
"t. c #4F6373",
"y. c #656766",
"u. c #6D6F6F",
"i. c #8D2736",
"p. c #83412F",
"a. c #814333",
"s. c #824232",
"d. c #824433",
"f. c #854433",
"g. c #804334",
"h. c #824434",
"j. c #834432",
"k. c #894532",
"l. c #8B4B36",
"z. c #844C39",
"x. c #8D4D39",
"c. c #854A36",
"v. c #924D37",
"b. c #924E38",
"n. c #8D523B",
"m. c #85513E",
"M. c #94523B",
"N. c #99543C",
"B. c #9B573C",
"V. c #A95C3D",
"C. c #8D3644",
"Z. c #A03B48",
"A. c #825645",
"S. c #8C5642",
"D. c #8B5946",
"F. c #845B4B",
"G. c #8B5D4B",
"H. c #865846",
"J. c #945C46",
"K. c #9B5D44",
"L. c #925E49",
"P. c #835F50",
"I. c #8A4646",
"U. c #A45D41",
"Y. c #A95F41",
"T. c #8E604E",
"R. c #94614C",
"E. c #9C634B",
"W. c #9D6046",
"Q. c #836253",
"!. c #8C6453",
"~. c #8D6B5B",
"^. c #886959",
"/. c #966955",
"(. c #9C6A54",
"). c #966B57",
"_. c #9D745D",
"`. c #A36146",
"'. c #AD6346",
"]. c #A3664C",
"[. c #AC6649",
"{. c #A5684E",
"}. c #AC6A4D",
"|. c #B46647",
" X c #B96745",
".X c #BC6A47",
"XX c #B36648",
"oX c #B56A4B",
"OX c #BC6C4B",
"+X c #B86748",
"@X c #BE704F",
"#X c #A46C53",
"$X c #AC6D52",
"%X c #AB7156",
"&X c #A8745B",
"*X c #BD7252",
"=X c #BD7758",
"-X c #B57355",
";X c #B66E50",
":X c #897468",
">X c #AB7B63",
",X c #C36E4A",
"<X c #C56C48",
"1X c #C4724F",
"2X c #C9734F",
"3X c #D2764F",
"4X c #C47350",
"5X c #CA7450",
"6X c #CB7A55",
"7X c #C87B59",
"8X c #D27750",
"9X c #D47952",
"0X c #D57E59",
"qX c #C87F60",
"wX c #B18971",
"eX c #D4815B",
"rX c #D98159",
"tX c #CA8566",
"yX c #D28F6F",
"uX c #707D89",
"iX c #5F768A",
"pX c #758493",
"aX c #969393",
"sX c #828389",
"dX c #B6B3B1",
"fX c #A49A99",
"gX c #C99C83",
"hX c #D8AD90",
"jX c #EAB795",
"kX c #C6AEA3",
"lX c #FECFAD",
"zX c #F3C09F",
"xX c #BDC4C9",
"cX c #D5D7D9",
/* pixels */
"h.h.f.a m s.C C C h.h.Z i C C Z Z l C C C C i V C C s.s.h.h.h.m a j.C C C C C j.m v l.h.C s.C l l s.b b f.Z g.g.g.g.Z h.B a f.C ",
"h.h.s.a m s.C C C C s.Z i h.Z l l l l l l l i V C C s.s.s.C s.m a s.C C C C C s.j v l.h.C C C l l p.s b j.Z Z Z Z Z Z s.m a s.C ",
"h.h.f.a m j.s.s.s.s.s.Z i s.s.l l l l l l C i Z s.s.s.s.s.g.f.m a j.s.s.s.s.s.j.m v l.h.s.s.C l l p.s b k.g.g.g.g.h.g.f.m a j.C ",
"i i i u i i i i i i i i u i i i i i i i i i u i i i i i i i i i u a i i i i i a i u a i i i i i i i u u a i a i i i i a i u a i ",
"V V V Z V V j u k V V V V V V F a s Z V V V Z V V Z a v Z V V V V V Z M i Z V F F Z F F Z s a V V V V V V V Z i M Z V V V Z V V ",
"h.h.s.s.h.s.k i p.s.s.s.s.s.s.f.b M k.s.s.s.d.d.s.p.s M k.s.s.s.s.s.j.m a f.h.l.c.c.l.l.k.j b j.s.s.s.s.g.g.s.a A f.C C C C C C ",
"h.f.f.f.h.j.k i s.d.f.f.d.d.d.k.b M k.h.f.f.h.h.h.p.s M k.s.s.s.s.s.f.V a k.h.l.l.l.l.l.k.M s k.d.h.h.h.h.h.s.a m j.C C C C C C ",
"a a a i i a i 4 a a a a i i a a u u a a a a a a a a u u a a a i i i a i u a a a a a a a a u u a i i i i a i i u i a i i i i i i ",
"V m V i s k h k h V V m u V V h h h h m V m u j V V V V V A S M i V m V V m m V s i k m m V h h h k a a V V V V V m m V b u V A ",
"s.C p.a m p.s.s.s.s.s.C a l.f.p.C l n n p.s.a Z j.f.f.f.f.f.k.m a k.s.s.s.s.s.k.m a p.s.j.s.s.p.l p.s M k.s.j.s.s.j.s.k.m a k.h.",
"Z V C a j C Z C Z Z Z V i Z Z k l l k k l V i V C Z Z Z Z Z h.B a s.Z Z C Z Z s.B i C Z Z C Z k k n a b d.Z Z Z Z Z Z h.B i h.Z ",
"i i i u i a i u i i i i u i i i i i i i i i u i a i i i v i p p 4 a v i u i i v i i a i v i i a i i i i a i i u i i i i i u i i ",
"z.z.z.c.c.c.S i C c.z.z.z.z.z.x.M M x.z.z.z.z.z.z.d.a $.h 4 P P P 5 Z S a c.c.z.l.l.z.z.x.M b x.z.z.z.z.z.c.C i A c.F F Z Z F Z ",
"x.x.x.l.x.l.F a p.l.x.x.x.x.x.v.B B v.x.x.x.x.x.x.k.M 4 _ w.e.e.e.w.U j b l.l.x.l.l.x.l.v.B M v.x.x.x.x.x.x.k.a D l.d.f.d.s.s.d.",
"S S S D S V s u V S S S D S S D v b D S S S D S S S e ] t.w.e.e.e.w.e.3 p D A A A S A A S v v D S S S S S S m u b V m m m m m m ",
"v v v u i v v v v v b b u v v v v v v | | b u v ..#.4 iXiX_ 3 ` H t.pXw.a #...#. .{ #.b v v v v v b u i v v v v v v v v i u v v ",
"x.x.l.v D v.x.x.v.b.M.x.v M.b.l.l.l.l.b.M.M.v l.N.Y.M ] _ P aXdXy.K e._ x.Y.U.V.D #.oXN.v.v.v.b.b.N.M N N.b.b.b.b.b.b.v.S v l.h.",
"l.l.l.v S v.x.x.x.b.b.l.| N.N.N.B.U.U.U.'.'.%.K.+X9XN ' U P dXcXuX> ] 3 U.5X1X,XL.7.tX*X|.XXU.U.B.N.M B M.x.b.x.x.x.x.b.S v k.s.",
"D D Z i N z.z.z.c.D z.A.[ J.K.K.K.K.K.K.K.K.v g K.7Xs H { O :.wX, 5 ^ = K.;X}.OXG.5.tX$X}.oXoX}.].`.#.#.n.D z.z.z.z.c.z.B c F V ",
"v v v v v v c [ ..#.#.:.%.;.=.:.X.X.:.;.;.:.a 6.{ #., ; ~ #.yXlXQ...1 $ i :.:.>.5.6.5.:.:.o.} #.#.-.#.#.#.#...c i v v v v v v v ",
"N.N.M.N.N.b.D ..XX4X4X4X4X4X1X0X^.!.eX4X4X5X+Xy.r.M.S X  .jXjXjXzXwX$ X ,.5X@X=X=X=X*X=X@XA.2.,X1X4X4X4X4X4X|.#.A.N.x.M.b.M.M.M.",
"M.M.M.M.M.B.S.#.'.OX1X1X4X4X1X6X^.!.0X4X4X4X6XD r.-.g o , jXhXwXlX~.. o $.5XXX'.'.'.'.'.|.<.F.5X1X4X4X4X4X*X|.$.&XoXx.x.x.x.x.x.",
"N.N.M.U.XX+XJ.#.OX1X1X1X4X4X1X6XQ.F.6X4X4X4X4X+X6.y.O U . N gXgXwXo > U M 5X+X[.[.XX[.[.OXA.F.5X4X4X4X4X4X*X|.#.R.+X`.N.n.M.n.x.",
"| | ....;.#...X.:.:.:.:.%.;.;.:.o...#.:.:.:.o.>.p u.3 H +.+.2 , ~ / _ : v :.#.#.....#.#.;.o.o.:.;.:.;.;.:.;.#.} ..#.#.#.| [ | | ",
"J.}.XX#.G.[.[.[.[.$X-X#Xo.[.[.`.`.`.].}.}.}.o.J.[.s , $ K ( W W ' ) 1 # i E.*XOXR.#.'.}.oXoXoX;XoX@X1.F.*XoXoXOXOXoXoXOXR.#.K.S.",
"oXOXOX-.L.OX+X+X+X+XOX[.:.@XOXXXXXXXXXXXXX'.%.`.|.v r 3 < H y t L 1 < T ( { OX5XE.:.|.OX4X4X4X4X4X2X2.T.5X4X4X4X4X4X4X2XE.:.OXK.",
"@X@XOX$.R.OX+XOXOXOXOXXX%.+X+XXXXXXXXXXXXX[.%.4X<.' p r Y H w t < I ) ^ T ' ,.3XE.-.|.OX4X4X4X4X4X5X2.G.8X4X4X4X4X4X4X5XE.-.5X4X",
":.:.#.} ..:.;.#.#.=.=.=.[ #.#.#.#.#.#.#.#.#.X.#.{ _ K r 4 Y w t L ^ ^ ^ T ) U -.6.X.;.:.:.;.:.:.:.:.X...:.:.:.;.:.:.:.>.;.X.>.:.",
"}.}.}.oXoX$X/...`.}.}.}.oX}.}.=Xq.2.*X}.}.}.;XW.+.T < 4 g L W y ( ^ ^ T H T ) R.-X%X%X&X-X2.7.=X}.}.oXoX}.}.[.#.!.%X#X%X%X%X%X$X",
"4X4X1X1X1XOXK.:.1X4X4X1X1X1X,XeX~.G.5X4X4X4X5XS.) J # L e e t W ( T ) K = J ) S +X[.XX'..XG.F.2X1X1X1X1X1X1X+X$.J.|.[.XXXXXXXXXX",
"5X5X5X5X5X,X`.:.2X5X5X5X5X5X2XeX^.!.0X5X5X5X8X&.( J # / Y r f t K I ) ^ $ 3 ) [ |.+X|.XX,XG.A.8X1X5X5X5X5X4XOX$.L.OX|.|.|.+X+X|.",
"1.1.1.1.1.-.#.[ -.1.1.1.1.1.1.2...O.3.1.1.1.$.{ _ 3 $ / ) K r , H I T ) = 3 ) ~ M :.-.-.-.o.X.2.:.:.1.1.1.:.$.[ ..-.$.$.#.$.-.-.",
"#X#XE. .4.E.E.E.E.(.(./.X.J.J.J.J.J.J.E.R.E.4 ( ) < = _ T T 2 g 4 L / ^ # 1 ) / u 5.>X(.E.].W.D.D.K.:.1.{.E.].{.].].].{.F.o.#X#X",
"4X4X,X-.E.,XOXOXOXOXOXXX:.1XOX|.|.XX|.|.|.|.Q ( ) = ; ) ^ H 9 9 r u ( I   = T ) P Q.yX4X1X1X+XXXXX.XF.G.2X1X1X1X1X1X1X2X].:.2X1X",
"5X5X2X-.E.2XOXOXOXOX,X+X:.,XOXOXOXOX+X|.OX'.{ ) T # > T K w.! Q P r p : # # T _ I 3.yX6X2X2XOX|.|.<XF.T.3X1X5X5X5X5X5X8X{.:.2X4X",
"2.2.,.[ #.2.,.2.,.,.,.-.[ ,.,.,.,.,.-.-.,.v ) ) I   ; ) < ; 9 & $ - r w =   I ^ ) } 0.2.,.2.,.$.-.,.o.o.4.2.2.4.2.2.2.2.;.[ 2.2.",
"E.R.R.E.E.(.^.o.E.R.R.R.E.R.R.E.%.:.].R.E.4 Y ) J   $ I w.I & & I w.1 7 7 . < ) T 1 R./.R.$.%.J.R.R.E.E.R.R.E.o.Q.(./././.(././.",
"5X5X5X1X2X5X{.:.5X1X2X2X1X2X4X2XA.T.9X4X5X[.e > $   < ; J ' ! @.e.G 4 9.c . % = 5 #XtXtX6XA.F.2X1X1X4X4X1X1X,X-.&X7X+X+X+X+X+X+X",
"5X5X2X2X5X,XK.:.8X5X5X5X5X5X5X2XA.T.9X5X4X0XK._.M   T I 3 < y t H G - y.y.c e >XG.yXtXtX6XA.F.3X1X2X5X5X5X4X<X$.#X1X|.+X|.|.|.+X",
"F.F.F.G.F.A.$.X.G.F.F.F.G.F.A.A.....F.F.F.<.1.lXwX  K ^ I < 9 R ( ) ; 4 y.{ 0.lX~.2.~.^.Q.%.%.G.A.A.F.F.A.A.2.[ #.2.,.,.2.<.,.2.",
"!.!.G.} 1.G.F.G.F.!.!.Q.[ A.A.<.F.A.A.!.!.4.>.hXe f z y T ) 1 & H ^ ^ # 9.y.e wX:Xp F.F.G.R.H.<.<.D.o.:.R.G.G.R.R.T.G.R.3.X./.!.",
"5X5X1X-.E.,XOXOXOXOX,XoX:.1XOX|.|.|.+X+X|.+Xv ^.w q i.i.y ( 2 y H K ) K > u.4 ~.#.,.+XOX4X1XOX|.|.,XF.R.8X4X5X4X5X5X5X8X{.:.5X4X",
"5X5X,X-.].,XOXOX,X,X,X+X:.1XOX|.|.|.|.|.|.|. .j 8 8 0 q 0 L 2 f ) < K _ 1 u 9.x.#X-. X,X2X2XOX|.|.,XF.R.8X5X5X5X5X5X5X8X{.:.3X5X",
"G.F.F.} 1.H.A.H.F.A.F.2.[ 2.<.<.A.<.<.<.<.,.! i.0 q 8 q 8 E t 6 Q Y < ^ ^ > ~ *.2.} A.A.F.D.F.<.2.A.o.;.D.F.F.G.G.F.F.D.1.} D.G.",
"G.G.F.D.G.F.-.[ <.F.F.G.G.G.F./.6.;.T.F.T.$.C.0 & q q 0 > I W o W ( K J ) ) = , ).~.^.^.!.:.o.A.F.F.G.G.F.F.G.X.7.~.Q.F.F.G.F.F.",
"5X5X2X2X2X,XW.#.|.2X5X5X5X5X2XrX~.R.9X5X1XI.i.6 L U Q J < +.y & y ) ^ 3 T ) T > XXOXOXOX2XR.F.3X1X5X2X2X2X1X,X-.&XeXOXOXOXOXOXOX",
"5X5X5X2X2X,XK.:.2X2X5X5X5X5X1XeX^.T.9X5XS.C.q 6 J ^ T K ^ Q + 2 9 Q ( / K ^ K 5 Y.|.XXXX2XR.F.8X1X2X2X2X2X1X.X-.J. XXX|.|.|.|.|.",
"R.R.R.E.R.D.*.o.E.R.L.R.E.R.R.(.:.5.(.G.I.i.x 6 $.*   1 K 2 , p , 2 K 1 $   , <.D.D.H.A.L.:.;.R.L.L.R.R.L.L.D.X.-.D.A.A.A.D.A.A.",
"8.8.F.X.:.F.4.A.4.0.Q.8.[ ,.,.,.,.,.,.W Z.q 6 r ,.= 1   X , ~.7.;.S .   = : 5 T.;.} <.2.4.A.P.0.0.Q.O.%.F.4.4.F.A.4.4.F.:.X.F.3.",
"OX+X2X2.{.5X1X1X4X4X5X*X:.1XOX|.|.|.OXl 0 6 6 B.n.K ) I $ j 0XL.2.2X* < / ( u 2XE.-. XOX2X2X7XtXqXeXF.R.9X5X2X5X2X2X2X3X{.3.,X|.",
"|.XX2X2.{.5X1X1X1X1X1XOX:.1XOX|.|.|.|.XXn.g i ,XV Y ) ) E d 9XL.3..X# T ^ ( J |.#X:. XOX2X1X7X7X7X0X4.R.3X1X2X1X2X2X1X3X].3.OXXX",
"D.H.R.o.4.E.R.E.R.R.R.D.} D.D.H.D.D.D.D.L.D.} R.A.1 J P % b #X1.o.]., $ I : 4 E.2.X.D.L.R.E.(.)./.(.%.:.E.R.R.E.R.R.R.E.2.o.J.A.",
"2.2.2.4.2.8.7.X.4.2.2.2.4.2.2.P.O.o.4.2.2.2.4.2.F.M sXsXb F.2.2.2.3.<. .fXu.*.q.0.0.0.0.3...} ,.2.2.2.2.2.2.4.X.;.8.0.8.8.0.8.8.",
"2X2X2X5X2XeX>X:.8X2X5X5X5X5X2XrX~.G.9X5X5X5X5X5X8XM.xXaX[.8X5X5X5X2X9Xn.xXfXV.4X4X4X*X*X,XA.A.2X1X2X5X2X2X2X,X,.&X6XOX*X*X*X*X*X",
"2X2X2X1X2X1XK.:.5X1X4X5X4X5X1XeX~.G.9X4X5X5X4X4X2XD.cXaX'.5X1X1X4X1X9XM.xXdXB.OX+X+XOX+X.XA.F.3X1X5X4X1X1X1X.X-.#X4XXX|.|.XX|.|.",
"E.E.E.{.].E.<.X.E.E.E.E.{.E.E.$X3.7.$XE.E.E.{.{.].p pXaXn.$X].].{.].}.<.dXr.B ].L.E.L.L.E.:.:.#XE.E.].].E.R.J...,.J.D.D.J.J.D.D.",
"7.7.1.[ #.,.-.-.-.7.7.7.[ -.-.$.-.-.:.3.3.3.[ #.1 G T { e #.b v u b M p +.K : i ;.[ ,.:.2.2.1.1.1.2.o.o.2.1.1.2.2.1.1.2.;.X.3.3.",
"6X6X1X-.E.,XOXOXOXOX1XoX:.1XOX|.|.|.|.OXOXXX$.d : < % . F n.M.S a x.n.h X $ G > m $. X,X2X2X1X,XOX5X^.G.3X1X2X2X5X2X2X8X].1.1XOX",
"4X4X,X-.E.,XOXOXOXOXOXXX:.1XOXXXXXXX|.XXXX'.$.g O O w c.l.c.x.A a x.c.l.h.@ O @ N *.|.OX1X1X,XOXOX2X!.G.3X1X1X1X4X4X4X2XE.:..XXX",
"}.}.]...A.`.E.].E.E.E.L.X.K.K.J.K.K.J.J.J.J.X.E.W.S.S.z.A S D b u S S m.m.S.J.`.A...K.E.{.}.{.].E.}.3.2.}.{.{.}.{.{.{.-XkX:XU.K.",
":.:.:.-.:.-...[ $.:.:.-.-.-.:.-. ...-.:.:.-.-.-.:.$.X.O.>.-.-.-.-.:.1.%.} 1.:.7.5.5.7.7.1.o.} $.:.:.:.:.:.:.1.} ;.3.:.fXcXdX1.:.",
"2X2X2X2X2X,XK.#. X1X2X2X2X2X2X2X<.G.3X1X2X2X2X2X1X<X<.~.eX1X2X2X2X1X3X].1.8X@X*X4X4X4X*X5XG.4.2X1X2X2X2X2X1X,X-.E.1XOX+XgX*X+XOX",
"1X1X1X1X1XOXE.#.XXOX1X1X1X1X1XOX<.G.2X@X1X1X1X1XOX X<.~.7XOX1X1X1X@X2XE.:.5XXX'.'.'.'.'.OXG.F.2X@X1X1X1X1XOX|.$.J.|.'.'.'.'.'.'.",
"1X1X1X1X1X5X$X#.OX1X1X1X1X1X1X1X<.!.6X1X1X1X1X1XOX X<.F.5X1X1X1X1X1X2XE.:.5X+XXXXXXXXX'.,XG.F.2X1X1X4X1X1XOX+X$.J.|.'.XXXXXXXXXX"
};
