/* XPM */
static const char *wall[] = {
/* columns rows colors chars-per-pixel */
"64 64 167 2 ",
"   c #545555",
".  c #555555",
"X  c #545556",
"o  c #555556",
"O  c #565556",
"+  c #555656",
"@  c #555657",
"#  c #565656",
"$  c #565657",
"%  c #575657",
"&  c #565757",
"*  c #575757",
"=  c #575857",
"-  c #565658",
";  c #565758",
":  c #575758",
">  c #575759",
",  c #585758",
"<  c #575858",
"1  c #575958",
"2  c #575859",
"3  c #575959",
"4  c #585858",
"5  c #585958",
"6  c #585859",
"7  c #595859",
"8  c #585959",
"9  c #595959",
"0  c #58585A",
"q  c #59585A",
"w  c #58595A",
"e  c #59595A",
"r  c #5A595A",
"t  c #595A5A",
"y  c #595A5B",
"u  c #595B5B",
"i  c #5A5A5A",
"p  c #5A5A5B",
"a  c #5B5B5B",
"s  c #5B5B5C",
"d  c #5C5B5C",
"f  c #5B5C5C",
"g  c #5C5C5C",
"h  c #5D5D5D",
"j  c #5D5D5E",
"k  c #5D5E5E",
"l  c #5E5F5E",
"z  c #5F5E5F",
"x  c #5F5F5F",
"c  c #606060",
"v  c #606061",
"b  c #616161",
"n  c #616262",
"m  c #626362",
"M  c #626363",
"N  c #636464",
"B  c #646464",
"V  c #646465",
"C  c #646565",
"Z  c #646665",
"A  c #656665",
"S  c #656566",
"D  c #666566",
"F  c #656666",
"G  c #656667",
"H  c #666666",
"J  c #666766",
"K  c #666667",
"L  c #666767",
"P  c #676767",
"I  c #686868",
"U  c #696969",
"Y  c #69696A",
"T  c #6A696A",
"R  c #696A6A",
"E  c #6A6A6A",
"W  c #6A6B6A",
"Q  c #6B6A6B",
"!  c #6B6B6B",
"~  c #6C6C6C",
"^  c #6C6C6D",
"/  c #6D6C6D",
"(  c #6D6D6D",
")  c #6D6E6D",
"_  c #6D6D6E",
"`  c #6E6D6E",
"'  c #6E6E6E",
"]  c #6E6E6F",
"[  c #707070",
"{  c #717071",
"}  c #717171",
"|  c #717172",
" . c #727172",
".. c #727272",
"X. c #727372",
"o. c #727273",
"O. c #737373",
"+. c #737474",
"@. c #747474",
"#. c #747574",
"$. c #747475",
"%. c #757475",
"&. c #757575",
"*. c #757576",
"=. c #757676",
"-. c #767676",
";. c #767776",
":. c #767677",
">. c #777677",
",. c #767777",
"<. c #777777",
"1. c #767877",
"2. c #777877",
"3. c #777778",
"4. c #787778",
"5. c #777878",
"6. c #787878",
"7. c #787978",
"8. c #797978",
"9. c #787879",
"0. c #797879",
"q. c #787979",
"w. c #797979",
"e. c #797A79",
"r. c #79797A",
"t. c #7A797A",
"y. c #797A7A",
"u. c #7A7A7A",
"i. c #7A7B7A",
"p. c #7A7A7B",
"a. c #7B7A7B",
"s. c #7A7B7B",
"d. c #7B7B7B",
"f. c #7C7B7B",
"g. c #7B7C7B",
"h. c #7B7B7C",
"j. c #7C7B7C",
"k. c #7B7C7C",
"l. c #7C7C7C",
"z. c #7D7C7C",
"x. c #7C7D7C",
"c. c #7D7D7C",
"v. c #7C7C7D",
"b. c #7D7C7D",
"n. c #7C7D7D",
"m. c #7D7D7D",
"M. c #7C7E7D",
"N. c #7D7E7D",
"B. c #7E7E7D",
"V. c #7D7D7E",
"C. c #7E7D7E",
"Z. c #7D7E7E",
"A. c #7E7E7E",
"S. c #7E7F7E",
"D. c #7E7E7F",
"F. c #7F7E7F",
"G. c #7E7F7F",
"H. c #7F7F7F",
"J. c #7F7F80",
"K. c #828282",
"L. c #848484",
"P. c #969696",
"I. c #B4B4B4",
"U. c #B6B6B6",
"Y. c #C4C5C5",
"T. c #C5C5C5",
"R. c #FBFBFB",
/* pixels */
"w w $ $ $ $ $ $ - w w 2 w w $ $ $ $ - 2 w w $ w 2 w 2 $ 2 w - $ $ w w $ $ $ $ - 2 w w w w 2 2 - $ $ - 2 w $ $ $ - - w w $ $ $ $ ",
"w 2 $ $ 2 - $ $ $ $ - - 2 $ $ 2 $ $ $ w w - $ $ $ - - $ - $ 2 $ 2 w w 2 w w w 2 w w w w w w w w - 2 $ w 2 $ $ $ w w w - $ w $ $ ",
"- 2 $ - 2 - - - $ $ - $ - - - $ - w w w w - $ $ $ $ w - - $ $ $ $ - w w w w $ w w w w w w w w w - - 2 w 2 2 w w w w 2 $ - w $ - ",
"2 2 - 2 w 2 2 $ $ - w $ 2 - $ 2 w w w w w w w - $ $ $ $ $ $ $ $ - w 2 w w - $ $ - $ - w w w w w w w w w w w w w 2 w w $ - $ $ - ",
"w w w 2 w 2 2 $ $ $ w 2 w - 2 2 w w w w w w w $ $ $ $ $ $ $ - w w w w $ 2 w $ w $ $ $ - w w w w w w w w w w w w w w w 2 w $ w w ",
"w w w w w w $ - $ w w w w 2 2 $ - w w w w w w $ $ $ $ $ $ 2 2 w w w w w 2 - $ $ $ $ $ w $ $ w w 2 2 w w w w w w w w - 2 2 2 w w ",
"w w w w w w $ $ - w w w w w - $ 2 w w w w w w $ $ $ $ $ $ w w w w w w w w $ $ - w $ $ $ 2 w - w - w w w w w w w w w $ $ - w w w ",
"w w w 2 - $ $ - - - w w w w , - w w w w w w - $ $ $ $ $ $ - w w w w w w w $ $ 2 - w , - $ $ - w - - w w w w w w w w w - $ - w w ",
"w w w - $ $ $ $ - w w w w w $ $ w w w w w w w $ $ $ $ $ $ 2 w w w w w w w $ $ $ w $ $ w - $ - 2 - 2 w w w w w w w - w w 2 $ w w ",
"w w - - $ - $ $ $ w w w w $ 2 $ $ $ w w w w = $ $ $ $ $ $ $ w w w w w w $ $ $ 2 w $ w 2 w w $ $ $ 2 2 2 2 2 w w w w w w w w w w ",
"w w 2 $ $ $ $ $ $ w 2 w 2 $ $ $ $ w w w w w w $ $ $ $ $ $ $ w w w w 2 2 $ 2 2 w w w w w w 2 $ $ w w $ 2 $ 2 2 2 w w w w w 2 w w ",
"s w w - $ $ - - $ $ - w 2 - - $ - w w w w w w - - $ $ $ $ $ $ 2 w , w w $ $ w w w w w w w w - , $ 2 w - - $ - w w 2 w w w - 2 w ",
"w w w w $ - $ 2 $ $ $ w w - - $ w w w w 2 - , w w $ - w $ $ w w - w w w w w w w w w w w w w $ - $ - - $ - 2 w w $ - w w w w 2 w ",
"w w 2 w - $ $ $ w w $ $ $ $ $ = w w w w w 2 $ w 2 - $ - $ $ - w w w w $ $ $ $ $ $ $ w w w w 2 w - w w w w w w w w w w w w 2 - - ",
"w w w 2 2 $ $ 2 w = w w $ = $ 2 w w 2 $ $ 2 2 w n S S S S I S I I I S S S n N S k w w w w w 2 $ - w w w w w w w w w w w w w w w ",
"w w 2 2 2 $ w w $ $ , w w w - w w = $ w s f k n I $.y.$.3.y.y.y.y.y.y.$.~ ~ ~ ! n w k w w w $ $ $ $ 2 w w w 2 w w w w w w w w w ",
"w w w w w , w w w w , - w w d n S ~ ~ { $.3.$.$.y.k.l.l.l.l.l.l.l.l.l.l.y.y.y.y.$.{ { { ~ ~ I S n s $ w , w w w w w w w w w w w ",
"w w w w w w w w w w k n I ~ { $.y.y.y.y.y.l.h.y.y.y.y.y.l.l.l.l.l.l.l.l.l.l.l.l.l.y.y.y.y.y.y.k.y.{ ~ S f w - - w w w w w w $ - ",
"w w w w w w w w n S { $.$.$.y.g.l.y.y.y.y.l.y.y.y.h.l.l.l.l.l.l.l.l.l.l.l.l.l.l.l.y.y.y.y.y.y.k.l.y.y.5.+.I n k w w w = $ = w 2 ",
"w w w w w w w S { $.$.y.y.y.y.l.l.g.y.y.y.y.y.l.y.l.l.l.l.l.l.l.l.l.l.l.g.l.l.l.l.y.k.l.y.l.l.h.y.l.g.y.y.$.$.{ k w w w $ - w w ",
"w - $ $ w k I $.y.4.y.y.y.y.y.y.l.y.l.y.l.l.l.l.l.l.y.l.l.J.l.l.l.j.y.l.l.l.y.y.y.y.y.y.y.l.l.l.y.l.l.l.l.y.y.y.$.I k w w w w w ",
"w w w k S { y.$.y.l.y.y.y.h.l.l.l.l.l.l.l.l.l.y.l.l.l.l.l.l.l.l.l.y.l.l.l.y.y.y.y.y.y.y.y.y.l.y.y.y.l.l.l.l.y.y.y.y.$.S w w w w ",
"w f I $.$.$.y.y.k.l.l.l.l.l.l.l.l.l.l.l.l.l.l.y.l.l.l.l.k.y.h.y.l.l.l.l.l.l.y.y.y.y.y.l.y.y.l.y.y.y.y.l.l.l.l.l.l.y.y.y.~ k w w ",
"n ~ $.$.y.y.y.y.l.l.l.l.l.l.l.l.l.l.l.l.l.l.l.l.g.y.l.l.l.l.y.$.y.l.l.l.k.y.y.y.y.y.y.l.y.g.k.y.y.y.y.l.l.l.l.l.l.l.k.y.5.{ k w ",
"$.$.5.k.l.y.y.y.l.l.l.l.l.l.l.j.l.k.y.l.l.l.l.l.y.y.y.l.l.l.k.y.y.l.l.l.l.l.y.l.y.y.l.y.y.y.l.y.$.g.y.h.l.l.l.y.l.l.l.y.y.y.{ n ",
"$.5.y.l.l.y.y.l.l.l.l.l.l.l.l.y.l.l.l.l.l.l.l.l.l.y.y.l.l.l.l.y.y.j.l.y.y.l.l.l.l.l.y.y.l.h.y.y.y.y.y.y.k.l.l.l.l.l.y.y.y.y.y.$.",
"y.5.y.l.l.y.l.y.l.l.l.l.l.l.l.y.y.l.l.l.l.l.l.l.l.y.y.j.l.y.y.y.y.y.l.y.y.$.y.l.l.y.y.l.l.l.l.l.y.y.h.y.l.l.l.l.l.y.y.y.y.l.y.y.",
"y.y.y.l.l.y.y.y.y.l.y.l.l.l.l.y.y.y.l.l.l.l.l.l.y.y.y.y.l.y.y.y.l.l.l.l.y.y.y.l.l.y.y.y.l.l.l.l.y.y.l.l.l.y.l.l.l.k.y.l.y.l.l.h.",
"y.y.l.l.g.y.y.3.l.k.y.y.k.y.l.y.l.l.l.y.y.l.l.y.y.y.y.k.l.l.l.l.l.l.l.l.y.y.l.l.l.y.y.y.l.l.l.l.h.y.l.l.l.l.y.l.l.y.y.g.l.y.l.l.",
"y.l.l.l.l.j.$.5.y.y.y.y.y.y.y.y.l.l.j.l.y.y.l.l.l.y.y.l.l.h.y.l.l.l.l.l.y.y.l.l.y.$.y.y.l.l.l.l.l.l.l.y.l.l.l.l.h.y.y.y.l.l.l.y.",
"l.l.l.l.l.l.y.y.y.y.y.y.y.y.y.y.y.l.y.y.l.y.l.l.l.y.y.l.l.l.l.l.l.l.l.l.l.y.l.l.y.y.y.y.l.l.l.l.l.l.y.$.y.l.l.l.h.y.y.y.l.l.l.l.",
"l.l.l.l.l.l.l.l.j.l.l.y.y.l.y.y.y.y.y.$.y.l.l.l.l.y.y.l.l.l.l.l.l.l.l.l.h.l.l.l.y.y.y.y.l.l.l.l.l.y.h.2.y.l.y.y.l.y.y.y.k.l.l.l.",
"l.l.l.l.l.l.y.y.y.l.y.y.$.k.k.y.y.$.2.y.y.l.l.l.k.y.y.y.l.l.l.l.l.l.l.l.y.y.l.l.g.y.y.k.l.l.l.l.l.l.y.g.k.y.y.y.l.y.y.g.l.l.l.l.",
"l.l.l.l.l.y.y.y.k.y.h.l.5.y.l.l.y.$.$.y.l.l.l.l.y.y.$.y.l.l.l.l.l.l.l.y.y.$.y.l.y.y.y.l.l.l.l.l.l.l.l.h.l.y.k.l.y.y.l.y.l.l.l.l.",
"l.y.h.J.l.l.h.l.l.j.l.l.y.l.j.y.y.y.y.y.y.l.l.l.y.y.y.l.l.l.l.l.l.l.l.y.$.4.y.y.y.l.y.y.y.l.l.l.l.l.l.j.y.k.l.j.y.y.y.y.h.y.l.l.",
"l.h.l.l.l.l.l.y.y.y.y.y.y.l.l.l.l.y.y.y.y.l.l.l.y.$.j.l.l.l.l.l.l.l.l.y.$.3.y.y.l.l.l.y.y.l.l.l.l.l.l.l.l.h.y.y.y.y.y.y.l.y.l.l.",
"h.y.h.l.l.l.y.y.y.2.$.y.y.k.l.l.y.y.y.5.y.y.l.l.5.y.l.l.l.l.l.l.g.l.l.y.y.2.$.l.l.l.l.l.l.l.l.l.l.l.l.l.l.l.y.y.y.y.y.l.l.l.l.l.",
"y.y.y.y.l.l.h.y.l.5.5.y.y.l.l.l.y.y.y.$.y.y.y.y.y.y.y.l.l.l.y.l.l.l.l.k.y.k.y.l.l.l.l.l.l.l.l.l.l.k.g.l.l.l.l.k.h.l.y.k.l.l.l.l.",
"y.y.y.l.l.l.l.y.l.l.y.y.y.y.l.l.y.k.y.y.l.y.y.h.l.l.l.y.y.y.y.l.y.l.l.l.y.y.l.y.l.l.l.l.l.l.l.l.l.l.l.l.j.l.l.l.l.y.l.l.h.y.y.y.",
"l.k.y.l.l.l.l.l.l.l.y.y.y.3.j.l.y.l.h.3.l.l.y.j.y.y.y.y.4.y.y.y.l.y.y.y.y.$.y.l.y.j.l.l.l.l.l.l.l.l.y.j.l.h.y.y.y.y.y.j.l.y.y.l.",
"l.h.y.l.y.l.l.l.l.l.y.5.$.y.l.y.y.y.y.y.l.y.l.l.y.y.l.y.y.y.y.l.l.g.l.l.j.y.l.l.j.y.l.y.y.y.y.l.l.l.y.l.l.y.y.y.y.y.y.l.l.y.l.k.",
"y.y.y.y.y.l.l.l.l.l.k.y.y.5.k.l.h.y.y.l.l.l.l.l.l.l.l.l.l.y.l.l.l.l.l.l.l.g.k.l.y.y.k.y.y.y.l.l.l.y.y.l.l.k.y.g.y.y.y.y.l.k.l.h.",
"y.l.l.l.k.l.l.l.l.l.l.l.l.y.l.l.l.y.k.l.l.l.y.l.l.l.l.l.l.l.l.l.l.l.l.l.l.y.y.y.y.y.y.y.y.l.l.l.l.k.l.l.y.y.y.y.y.y.y.y.y.y.h.y.",
"y.l.l.l.l.l.l.l.l.l.l.l.l.h.y.l.l.l.l.l.l.y.y.y.l.l.l.j.l.l.l.l.l.l.y.l.l.l.y.l.l.y.y.l.l.h.l.l.l.l.y.l.y.y.$.y.l.l.y.y.4.l.l.y.",
"l.k.l.l.l.l.l.l.l.y.y.y.l.y.y.l.y.y.j.l.l.l.y.y.l.l.y.l.l.l.l.l.l.l.l.l.j.l.y.y.l.y.y.l.l.l.l.l.l.l.l.l.l.l.y.y.l.l.y.l.y.l.l.l.",
"l.l.l.l.l.l.l.l.l.l.l.l.y.$.y.y.y.y.y.l.l.l.l.k.l.l.l.l.l.l.l.l.l.l.l.y.l.y.y.y.y.y.y.y.l.l.l.l.y.l.y.y.l.y.y.l.l.l.y.l.k.k.l.l.",
"l.l.y.l.l.l.l.l.l.l.l.l.l.g.y.y.y.l.k.k.l.l.l.l.l.l.l.l.l.l.k.g.g.y.$.y.g.y.y.5.y.k.y.y.y.l.l.l.y.y.y.l.l.y.l.l.l.y.k.l.l.l.l.l.",
"l.l.l.l.l.l.l.l.l.l.l.l.l.l.j.l.y.l.y.l.y.l.k.y.l.l.l.l.l.l.y.y.y.y.$.y.y.y.y.y.y.h.y.y.y.y.l.y.l.y.y.l.l.l.l.l.l.l.l.l.l.l.l.l.",
"l.h.y.y.h.l.l.l.l.l.l.l.l.l.j.l.l.y.y.l.y.l.l.l.l.l.l.l.l.y.y.y.l.y.y.l.j.j.l.l.l.y.y.y.y.y.$.y.y.y.4.y.l.l.l.l.l.l.y.y.y.l.l.l.",
"l.y.y.l.h.l.k.l.l.l.l.l.l.j.l.l.l.y.y.l.y.y.l.l.y.y.y.y.l.y.y.l.l.y.y.h.l.l.l.l.j.l.y.y.y.3.4.$.3.y.j.l.l.l.l.l.l.l.y.y.y.l.l.y.",
"l.l.y.l.l.l.l.l.l.l.l.l.l.l.l.l.y.y.y.y.l.h.y.y.y.3.3.g.y.y.l.y.g.y.y.y.l.y.l.l.l.l.l.l.$.5.2.$.y.l.l.l.l.l.l.l.l.h.y.l.l.k.l.y.",
"l.l.y.l.l.l.l.l.l.l.l.l.k.l.l.y.y.y.$.y.y.y.y.y.y.y.y.l.l.h.l.y.y.l.y.y.l.y.l.l.l.g.y.y.y.2.y.y.y.l.l.l.l.l.l.l.l.l.y.y.y.h.l.y.",
"l.l.l.l.l.l.l.y.y.l.y.l.l.y.l.l.y.$.y.y.4.y.y.l.l.l.l.l.l.h.y.l.y.y.y.y.y.l.l.l.l.l.y.y.y.y.y.l.l.l.l.l.l.l.l.l.y.l.y.y.$.y.l.y.",
"l.l.l.h.l.l.y.y.y.y.y.l.l.h.l.h.y.y.l.y.y.h.l.l.l.l.l.y.y.y.y.y.y.y.y.y.l.l.l.l.j.l.l.y.l.l.l.l.l.l.l.l.l.l.l.l.y.$.h.l.y.l.l.l.",
"l.J.l.y.y.y.y.y.y.y.y.y.y.y.y.y.y.l.l.g.k.y.y.l.l.y.y.l.y.y.h.y.y.g.y.y.l.l.y.y.y.y.k.k.y.y.l.l.y.l.l.l.l.l.y.y.y.y.l.l.k.l.l.l.",
"l.l.J.h.y.y.l.y.y.g.y.$.$.y.l.l.l.l.l.l.y.l.l.l.l.l.y.y.y.y.l.y.y.y.l.l.g.y.y.y.y.k.y.l.l.l.g.l.l.l.J.l.k.l.y.y.y.y.y.l.y.l.l.y.",
"K.J.J.l.l.l.h.l.y.y.3.$.y.y.l.l.l.l.l.l.l.l.J.l.l.l.y.y.y.h.l.l.y.y.l.y.y.y.y.y.y.y.y.y.y.l.l.l.l.l.l.h.l.y.5.y.h.l.l.k.l.y.l.l.",
"J.J.l.l.h.l.j.l.y.4.4.$.5.4.j.l.l.l.l.l.l.l.l.l.l.l.l.y.j.l.l.l.l.l.l.l.l.j.$.y.y.l.j.y.l.l.l.l.l.l.l.j.y.y.y.y.y.y.y.y.l.y.y.l.",
"l.l.l.y.l.l.k.y.y.y.$.$.y.3.y.y.y.l.l.l.y.l.l.l.l.K.l.h.l.l.l.l.l.l.l.h.y.y.y.$.y.l.l.l.l.l.l.l.l.l.y.l.l.3.3.y.y.y.y.l.l.y.l.l.",
"l.l.l.y.y.y.y.l.l.k.y.y.y.y.l.k.y.y.y.g.k.l.l.l.l.l.y.l.J.l.l.l.l.l.l.y.k.g.y.y.y.l.l.l.l.l.l.l.l.l.l.l.l.h.y.g.y.y.y.K.Y.P.y.l.",
"y.y.y.y.l.l.l.y.y.J.l.l.l.y.y.l.l.y.y.y.l.l.l.l.l.l.l.l.l.l.l.l.l.l.y.y.y.k.y.l.y.y.l.l.l.l.l.l.l.l.l.l.y.y.y.y.h.y.y.I.R.Y.l.y.",
"h.y.h.l.l.l.l.h.y.l.J.l.y.y.y.l.l.y.y.y.l.l.l.l.l.l.l.l.l.l.l.l.l.l.y.y.y.y.y.l.l.l.l.l.l.l.l.l.l.l.l.l.y.y.y.y.y.y.l.l.I.L.y.y.",
"l.l.l.l.l.l.l.y.l.l.l.K.l.l.y.y.l.l.y.l.l.l.l.l.l.l.l.l.l.l.l.l.l.l.y.5.y.l.l.l.l.l.l.l.l.l.l.l.l.l.l.J.l.l.y.y.y.y.y.l.$.3.l.y.",
"k.y.y.l.l.l.l.l.l.l.l.l.l.l.5.5.h.h.l.l.l.l.l.l.l.l.l.l.l.l.l.l.l.l.l.y.y.l.y.l.l.l.l.l.l.l.y.l.l.l.J.l.l.l.l.l.y.y.y.l.l.y.y.y."
};
